/* XPM */
static char *north[] = {
/* columns rows colors chars-per-pixel */
"64 64 201 2 ",
"   c #000000",
".  c #010101",
"X  c #020202",
"o  c #030303",
"O  c #040404",
"+  c #050505",
"@  c #060606",
"#  c #070707",
"$  c #080808",
"%  c #0A0A0A",
"&  c #0B0B0B",
"*  c #0C0C0C",
"=  c #0D0D0D",
"-  c #0E0E0E",
";  c #0F0F0F",
":  c #101010",
">  c #111111",
",  c #121212",
"<  c #141414",
"1  c #151515",
"2  c #161616",
"3  c #171717",
"4  c #181818",
"5  c #1A1A1A",
"6  c #1B1B1B",
"7  c #1C1C1C",
"8  c #1D1D1D",
"9  c #1E1E1E",
"0  c #1F1F1F",
"q  c #202020",
"w  c #212121",
"e  c #232323",
"r  c #242424",
"t  c #282828",
"y  c #292929",
"u  c #2A2A2A",
"i  c #2B2B2B",
"p  c #2C2C2C",
"a  c #2E2E2E",
"s  c #2F2F2F",
"d  c #303030",
"f  c #313131",
"g  c #323232",
"h  c #333333",
"j  c #343434",
"k  c #353535",
"l  c #363636",
"z  c #393939",
"x  c #3B3B3B",
"c  c #3C3C3C",
"v  c #3D3D3D",
"b  c #3F3F3F",
"n  c #414141",
"m  c #434343",
"M  c #454545",
"N  c #474747",
"B  c #494949",
"V  c #4A4A4A",
"C  c #4B4B4B",
"Z  c #4C4C4C",
"A  c #505050",
"S  c #515151",
"D  c #525252",
"F  c #535353",
"G  c #545454",
"H  c #555555",
"J  c #565656",
"K  c #575757",
"L  c #585858",
"P  c #5C5C5C",
"I  c #5D5D5D",
"U  c #5E5E5E",
"Y  c #5F5F5F",
"T  c #606060",
"R  c #626262",
"E  c #636363",
"W  c #646464",
"Q  c #666666",
"!  c #676767",
"~  c #696969",
"^  c #6C6C6C",
"/  c #6D6D6D",
"(  c #6E6E6E",
")  c #707070",
"_  c #717171",
"`  c #727272",
"'  c #737373",
"]  c #747474",
"[  c #767676",
"{  c #777777",
"}  c #787878",
"|  c #7A7A7A",
" . c #7B7B7B",
".. c #7C7C7C",
"X. c #7E7E7E",
"o. c #7F7F7F",
"O. c #808080",
"+. c #818181",
"@. c #828282",
"#. c #838383",
"$. c #848484",
"%. c #858585",
"&. c #868686",
"*. c #878787",
"=. c #898989",
"-. c #8A8A8A",
";. c #8B8B8B",
":. c #8C8C8C",
">. c #8D8D8D",
",. c #8F8F8F",
"<. c #909090",
"1. c #929292",
"2. c #939393",
"3. c #949494",
"4. c #959595",
"5. c #969696",
"6. c #979797",
"7. c #989898",
"8. c #999999",
"9. c #9A9A9A",
"0. c #9D9D9D",
"q. c #9E9E9E",
"w. c #A0A0A0",
"e. c #A1A1A1",
"r. c #A3A3A3",
"t. c #A4A4A4",
"y. c #A5A5A5",
"u. c #A6A6A6",
"i. c #A7A7A7",
"p. c #A8A8A8",
"a. c #AAAAAA",
"s. c #ACACAC",
"d. c #ADADAD",
"f. c #AFAFAF",
"g. c #B0B0B0",
"h. c #B2B2B2",
"j. c #B5B5B5",
"k. c #B6B6B6",
"l. c #B7B7B7",
"z. c #B9B9B9",
"x. c #BABABA",
"c. c #BBBBBB",
"v. c #BCBCBC",
"b. c #BDBDBD",
"n. c #BEBEBE",
"m. c #BFBFBF",
"M. c #C0C0C0",
"N. c #C1C1C1",
"B. c #C2C2C2",
"V. c #C3C3C3",
"C. c #C4C4C4",
"Z. c #C5C5C5",
"A. c #C6C6C6",
"S. c #C7C7C7",
"D. c #C8C8C8",
"F. c #C9C9C9",
"G. c #CACACA",
"H. c #CBCBCB",
"J. c #CCCCCC",
"K. c #CECECE",
"L. c #CFCFCF",
"P. c #D0D0D0",
"I. c #D1D1D1",
"U. c #D3D3D3",
"Y. c #D4D4D4",
"T. c #D7D7D7",
"R. c #D8D8D8",
"E. c #D9D9D9",
"W. c #DADADA",
"Q. c #DBDBDB",
"!. c #DCDCDC",
"~. c #DDDDDD",
"^. c #DFDFDF",
"/. c #E0E0E0",
"(. c #E2E2E2",
"). c #E4E4E4",
"_. c #E5E5E5",
"`. c #E6E6E6",
"'. c #E7E7E7",
"]. c #E8E8E8",
"[. c #E9E9E9",
"{. c #EAEAEA",
"}. c #EBEBEB",
"|. c #EDEDED",
" X c #EEEEEE",
".X c #EFEFEF",
"XX c #F0F0F0",
"oX c #F1F1F1",
"OX c #F3F3F3",
"+X c #F4F4F4",
"@X c #F5F5F5",
"#X c #F6F6F6",
"$X c #F7F7F7",
"%X c #F8F8F8",
"&X c #F9F9F9",
"*X c #FAFAFA",
"=X c #FBFBFB",
"-X c #FCFCFC",
";X c #FDFDFD",
":X c #FEFEFE",
">X c #FFFFFF",
/* pixels */
">X>X>X>X>X>X>X>X>X>X>X>X>X>X>X>X>X>X>X>X>X>X>X>X>X>X>X>X>X>X>X>X>X>X>X>X>X>X>X>X>X>X>X>X>X>X>X>X>X>X>X>X>X>X>X>X>X>X>X>X>X>X>X>X",
">X>X>X>X>X>X>X>X>X>X>X>X>X>X>X>X>X>X>X>X>X>X>X>X>X>X>X>X>X>X>X>X>X>X>X>X>X>X>X>X>X>X>X>X>X>X>X>X>X>X>X>X>X>X>X>X>X>X>X>X>X>X>X>X",
">X>X>X>X>X>X>X>X>X>X>X>X>X>X>X>X>X>X>X>X>X>X>X>X>X>X>X>X>X>X>X>X>X>X>X>X>X>X>X>X>X>X>X>X>X>X>X>X>X>X>X>X>X>X>X>X>X>X>X>X>X>X>X>X",
">X>X>X>X>X>X>X>X>X>X>X>X>X>X>X>X>X>X>X>X>X>X>X>X>X>X>X>X>X>X>X>X>X>X>X>X>X>X>X>X>X>X>X>X>X>X>X>X>X>X>X>X>X>X>X>X>X>X>X>X>X>X>X>X",
">X>X>X>X>X>X>X>X>X>X>X>X>X>X>X>X>X>X>X>X>X>X>X>X>X>X>X>X>X>X>X>X>X>X>X>X>X>X>X>X>X>X>X>X>X>X>X>X>X>X>X>X>X>X>X>X>X>X>X>X>X>X>X>X",
">X>X>X>X>X>X>X>X>X>X>X>X>X>X>X>X>X>X>X>X>X>X>X>X>X>X>X>X>X>X>X>X>X>X>X>X>X>X>X>X>X>X>X>X>X>X>X>X>X>X>X>X>X>X>X>X>X>X>X>X>X>X>X>X",
">X>X>X>X>X>X>X>X>X>X>X>X>X>X>X>X>X>X>X>X>X>X>X>X>X>X>X>X>X>X>X>X>X>X>X>X>X>X>X>X>X>X>X>X>X>X>X>X>X>X>X>X>X>X>X>X>X>X>X>X>X>X>X>X",
">X>X>X>X>X>X>X>X>X>X>X>X>X>X>X>X>X>X>X>X>X>X>X>X>X>X>X>X>X>X>X>X>X>X>X>X>X>X>X>X>X>X>X>X>X>X>X>X>X>X>X>X>X>X>X>X>X>X>X>X>X>X>X>X",
">X>X>X>X>X>X>X>X>X>X>X>X>X>X>X>X>X>X>X>X>X>X>X>X>X>X>X>X>X>X>X>X>X>X>X>X>X>X>X>X>X>X>X>X>X>X>X>X>X>X>X>X>X>X>X>X>X>X>X>X>X>X>X>X",
">X>X>X>X>X>X>X>X>X>X>X>X>X>X>X>X>X>X>X>X>X>X>X>X>X>X>X>X>X>X>X>X>XK.K.$X>X>X>X>X>X>X>X>X>X>X>X>X>X>X>X>X>X>X>X>X>X>X>X>X>X>X>X>X",
">X>X>X>X>X>X>X>X>X>X>X>X>X>X>X>X>X>X$Xx.p.'.>X>X>X>X>X>X>X>X>X>XU.q < U V.>X>X>X>X>X>X>X>X>X>X>X>X>X>X>X>X>X>X>X>X>X>X>X>X>X>X>X",
">X>X>X>X>X>X>X>X>X>X>X>X>X>X>X>X>X>X[ & o j 6.].>X>X>X>X>X>X>X>X].B o o < ! U.>X>X>X>X>X>X>X>X>X>X>X>X>X>X>X>X>X>X>X>X>X>X>X>X>X",
">X>X>X>X>X>X>X>X>X>X>X>X>X>X>X>X>X>X6.& o o o j p.>X>X>X>X>X>X>X>XV.< o o o t K.>X>X>X>X>X>X>X>X>X>X>X>X>X>X>X>X>X>X>X>X>X>X>X>X",
">X>X>X>X>X>X>X>X>X>X>X>X>X>X>X>X>X>X>X@.o o o o < V.>X>X>X>X>X>X>X>XK o o o o p.>X>X>X>X>X>X>X>X>X>X>X>X>X>X>X>X>X>X>X>X>X>X>X>X",
">X>X>X>X>X>X>X>X>X>X>X>X>X>X>X>X>X>X>X].M o o o o p.>X>X>X>X>X>X>X>X@.o o o 9 U.>X>X>X>X>X>X>X>X>X>X>X>X>X>X>X>X>X>X>X>X>X>X>X>X",
">X>X>X>X>X>X>X>X>X>X>X>X>X>X>X>X>X>X>X>Xp.o o o < U.>X>X>X>X>X>X>X>X9.o o o c $X>X>X>X>X>X>X>X>X>X>X>X>X>X>X>X>X>X>X>X>X>X>X>X>X",
">X>X>X>X>X>X>X>X>X>X>X>X>X>X>X>X>X>X>X>X~.q o o 9 ~.>X>X>X>X>X>X>X>Xp.o o o B >X>X>X>X>X>X>X>X>X>X$X~.].>X>X>X>X>X>X>X>X>X>X>X>X",
">X>X>X>X>X>X>X>X>X>X>X>X>X>X>X>X>X>X>X>X$Xc o o 9 ~.>X>X>X>X>X>X>X>Xh.& o o K >X>X>X>X>X>X>X>X>X>XU.j j i.$X>X>X>X>X>X>X>X>X>X>X",
">X>X>X>X>X>X>X>X>X>X>X>X>X>X>X>X>X>X>X>X>XK o o q '.>X>X>X>X>X>X>X>Xx.& o o / >X>X>X>X>X>X>X>X>X>X>X[ o & / ].>X>X>X>X>X>X>X>X>X",
">X>X>X>X>X>X>X>X>X>X>X>X>X>X>X>X>X>X>X>X>XU o o q '.>X>X>X>X>X>X>X>Xx.& o o [ >X>X>X>X>X>X>X>X>X>X>X6.o o o M U.>X>X>X>X>X>X>X>X",
">X>X>X>X>X>X>X>X>X>X>X>X>X>X>X>X>X>X>X>X>XU o o q '.>X>X>X>X>X>X>X>Xx.& o o [ >X>X>X>X>X>X>X>X>X>XK.t o o o o j K.>X>X>X>X>X>X>X",
">X>X>X>X>X>X>X>X>X>X>X>X>X>X>X>X>X>X>X>X>XU o o q '.>X>X>X>X>X>X>X>Xx.& o o | >X>X>X>X>X>X>X>X>Xx.t o o o o o o K >X>X>X>X>X>X>X",
">X>X>X>X>X>X>X>X>X>X>X>X>X>X>X>X>X>X>X>X>XU o o q '.>X>X>X>X>X>X>X>Xx.& o o @.>X>X>X>X>X>X>X].@.< o o o o o o j 9.>X>X>X>X>X>X>X",
">X>X>X>X>X>X>X>X>X>X>X>X>X>X>X>X>X>X>X>X>XU o o q '.>X>X>X>X>X>X>X>Xx.& o o @.>X>X>X>X>X>XK.B o o o o o < K p.].>X>X>X>X>X>X>X>X",
">X>X>X>X>X>X>X>X>X>X>X>X>X>X>X>X>X>X>X'.~.K o o q '.>X>X>X>X>X>X>X>Xx.& o o @.>X>X>X>X$X9.q o o o o 9 ! V.$X>X>X>X>X>X>X>X>X>X>X",
">X>X>X>X>X>X>X>X>X>X>X>X>X>X>X>X].x./ t 9 < o o q '.>X>X>X>X>X>X>X>Xx.& o o @.>X>X>XV.K o o o o t | K.>X>X>X>X>X>X>X>X>X>X>X>X>X",
">X>X>X>X>X>X$X].$X$X$X$X'.V.6.! t & o o o o o o q '.>X>X>X>X>X>X>X>Xx.& o o =.>XK.! < o o & B 9.'.>X>X>X>X>X>X>X>X>X>X>X>X>X>X>X",
">X>X>X>X>X>Xp.t c c c c t & o o o o o o o o o o q '.>X>X>X>X>X>X>X>Xx.& o o / | < o o t [ x.$X>X>X>X>X>X>X>X>X>X>X>X>X>X>X>X>X>X",
">X>X>X>X>X>XV.t o o o o o o o o o 9 B @.h.B o o q '.>X>X>X>X>X>X>X>Xx.& o o o o 9 U i.'.>X>X>X>X>X>X>X>X>X>X>X>X>X>X>X>X>X>X>X>X",
">X>X>X>X>X>X>X~.| 9 o o o & t ! i.U.$X>X>XU o o q '.>X>X>X>X>X>X>X>Xx.& o o M i.~.>X>X>X>X>X>X>X>X>X>X>X>X>X>X>X>X>X>X>X>X>X>X>X",
">X>X>X>X>X>X>X>X>XU.@.B ! p.].>X>X>X>X>X>XU o o q '.>X>X>X>X>X>X>X>Xx.& o o =.>X>X>X>X>X>X>X>X>X>X>X>X>X>X>X>X>X>X>X>X>X>X>X>X>X",
">X>X>X>X>X>X>X>X>X>X>X>X>X>X>X>X>X>X>X>X>XU o o q '.>X>X>X>X>X>X>X>Xx.& o o =.>X>X>X>X>X>X>X>X>X>X>X>X>X>X>X>X>X>X>X>X>X>X>X>X>X",
">X>X>X>X>X>X>X>X>X>X>X>X>X>X>X>X>X>X>X>X>XU o o q '.>X>X>X>X>X>X>X>Xx.& o o =.>X>X>X>X>X>X>X>X>X>X>X>X>X>X>X>X>X>X>X>X>X>X>X>X>X",
">X>X>X>X>X>X>X>X>X>X>X>X>X>X>X>X>X>X>X>X>XU o o q '.>X>X>X>X>X>X>X>Xx.& o o 6.>X>X>X>X>X>X>X>X>X>X>X>X>X>X>X>X>X>X>X>X>X>X>X>X>X",
">X>X>X>X>X>X>X>X>X>X>X>X>X>X>X>X>X>X>X>X>XU o o q '.>X>X>X>X>X>X>X>Xx.& o o 6.>X>X>X>X>X>X>X>X>X>X>X>X>X>X>X>X>X>X>X>X>X>X>X>X>X",
">X>X>X>X>X>X>X>X>X>X>X>X>X>X>X>X>X>X>X>X>XU o o q '.>X>X>X>X>X>X>X>Xx.& o o 6.>X>X>X>X>X>X>X>X>X>X>X>X>X>X>X>X>X>X>X>X>X>X>X>X>X",
">X>X>X>X>X>X>X>X>X>X>X>X>X>X>X>X>X>X>X>X>XK o o q '.>X>X>X>X>X>X>X>Xx.& o o 6.>X>X>X>X>X>X>X>X>X>X>X>X>X>X>X>X>X>X>X>X>X>X>X>X>X",
">X>X>X>X>X>X>X>X>X>X>X>X>X>X>X>X>X>X>X>X$XM o o q '.>X>X>X>X>X>X>X>Xx.& o o 6.>X>X>X>X>X>X>X>X>X>X>X>X>X>X>X>X>X>X>X>X>X>X>X>X>X",
">X>X>X>X>X>X>X>X>X>X>X>X>X>X>X>X>X>X>X>X].t o o q '.>X>X>X>X>X>X>X>Xx.& o o 6.>X>X>X>X>X>X>X>X>X>X>X>X>X>X>X>X>X>X>X>X>X>X>X>X>X",
">X>X>X>X>X>X>X>X>X>X>X>X>X>X>X>X>X>X>X>X'.q o o q '.>X>X>X>X>X>X>X>Xx.& o o 6.>X>X>X>X>X>X>X>X>X>X>X>X>X>X>X>X>X>X>X>X>X>X>X>X>X",
">X>X>X>X>X>X>X>X>X>X>X>X>X>X>X>X>X>X>X>XK.& o o q '.>X>X>X>X>X>X>X>Xx.& o o 6.>X>X>X>X>X>X>X>X>X>X>X>X>X>X>X>X>Xh.~.>X>X>X>X>X>X",
">X>X>X>X>X>X>X>X>X>X>X>X>X>X>X>X>X>X>X>Xh.o o o q '.>X>X>X>X>X>X>X>Xx.& o o 6.>X>X>X>X>X>X>X>X>X>X>X>X>X>X>X>X>XU x.>X>X>X>X>X>X",
">X>X>X>X>X>X>X>X>X>X>X>X>X>X>X>X>X>X>X>Xh.o o o q '.>X>X>X>X>X>X>X>Xx.& o o 6.>X>X>X>X>X>X>X>X>X>X>X>X>X>X>X>X].j p.>X>X>X>X>X>X",
">X>X>X>X>X>X>X>X>X>X>X>X>X>X>X>X>X>X>X>XV.& o o c $X>X>X>X>X>X>X>X>Xx.& o o 6.>X>X>X>X>X>X>X>X>X>X>X>X>X>X>X>XU.9 i.>X>X>X>X>X>X",
">X>X>X>X>X>X>X>X>X>X>X>X>X>X>X>X>X>X>X>X~.9 o o M >X$XV.6.'.>X>X>X>Xx.& o o =.>X>X>X>X>X>X>X>X>X>X>X>X>X>X>X>Xh.o 9.>X>X>X>X>X>X",
">X>X>X>X>X>X>X>X>X>X>X>X>X>X>X>X>X>X>X>X>XK o o c =.M q | $X>X>X>X>Xx.& o o @.>X>X>X>X>X>X>X>X>X>X>X>X>X>X>X>X[ o [ >X>X>X>X>X>X",
">X>X>X>X>X>X>X>X>X>X>X>X>X>X>X>X>X>X>X>X>X@.o o o o j h.>X>X>X>X>X>XV.& o o ! >X>X>X>X>X>X>X>X>X>X>X>X>X>X>X~.t o j ].>X>X>X>X>X",
">X>X>X>X>X>X>X>X>X>X>X>X>X>X>X>X>X>X~.9.K 9 o o 9 | '.>X>X>X>X>X>X>XU.< o o j ].>X>X>X>X>X>X>X>X>X>X>X>X>X$X! o o o / $X>X>X>X>X",
">X>X>X>X>X>X>X>X>X>X>X>X>X>X>X~.i.U q o o o o K V.>X>X>X>X>X>X>X>X>X].t o o o | ].>X>X>X>X>X>X>X>X>X>X].x.U o o o o o @.>X>X>X>X",
">X>X>X>X>X>X>X].x.U.'.].U.9.K q o o o o o j i.$X>X>X>X>X>X>X>X>X>X>X>X/ o o o o M @.6.6.6.6.=.@.| ! M t & o o o o o o U >X>X>X>X",
">X>X>X>X>X>X>X=.& < t j < o o o o o o q @.'.>X>X>X>X>X>X>X>X>X>X>X>X>XK.9 o o o o o o o o o o o o o o o o o o o o o t x.>X>X>X>X",
">X>X>X>X>X>X>X6.o o o o o o o o o < [ U.>X>X>X>X>X>X>X>X>X>X>X>X>X>X>X>Xi.q o o o o o o o o o o o o o o o o o 9 B 6.~.>X>X>X>X>X",
">X>X>X>X>X>X>X$X@.< o o o o o < ! K.>X>X>X>X>X>X>X>X>X>X>X>X>X>X>X>X>X>X>XK.[ c q & & & & & & & & q j c ! @.p.~.>X>X>X>X>X>X>X>X",
">X>X>X>X>X>X>X>X>Xi.q o o o B x.>X>X>X>X>X>X>X>X>X>X>X>X>X>X>X>X>X>X>X>X>X>X>X$X~.K.V.x.x.x.V.V.K.~.].$X>X>X>X>X>X>X>X>X>X>X>X>X",
">X>X>X>X>X>X>X>X>X>XK.! j @.].>X>X>X>X>X>X>X>X>X>X>X>X>X>X>X>X>X>X>X>X>X>X>X>X>X>X>X>X>X>X>X>X>X>X>X>X>X>X>X>X>X>X>X>X>X>X>X>X>X",
">X>X>X>X>X>X>X>X>X>X>X>X].>X>X>X>X>X>X>X>X>X>X>X>X>X>X>X>X>X>X>X>X>X>X>X>X>X>X>X>X>X>X>X>X>X>X>X>X>X>X>X>X>X>X>X>X>X>X>X>X>X>X>X",
">X>X>X>X>X>X>X>X>X>X>X>X>X>X>X>X>X>X>X>X>X>X>X>X>X>X>X>X>X>X>X>X>X>X>X>X>X>X>X>X>X>X>X>X>X>X>X>X>X>X>X>X>X>X>X>X>X>X>X>X>X>X>X>X",
">X>X>X>X>X>X>X>X>X>X>X>X>X>X>X>X>X>X>X>X>X>X>X>X>X>X>X>X>X>X>X>X>X>X>X>X>X>X>X>X>X>X>X>X>X>X>X>X>X>X>X>X>X>X>X>X>X>X>X>X>X>X>X>X",
">X>X>X>X>X>X>X>X>X>X>X>X>X>X>X>X>X>X>X>X>X>X>X>X>X>X>X>X>X>X>X>X>X>X>X>X>X>X>X>X>X>X>X>X>X>X>X>X>X>X>X>X>X>X>X>X>X>X>X>X>X>X>X>X",
">X>X>X>X>X>X>X>X>X>X>X>X>X>X>X>X>X>X>X>X>X>X>X>X>X>X>X>X>X>X>X>X>X>X>X>X>X>X>X>X>X>X>X>X>X>X>X>X>X>X>X>X>X>X>X>X>X>X>X>X>X>X>X>X",
">X>X>X>X>X>X>X>X>X>X>X>X>X>X>X>X>X>X>X>X>X>X>X>X>X>X>X>X>X>X>X>X>X>X>X>X>X>X>X>X>X>X>X>X>X>X>X>X>X>X>X>X>X>X>X>X>X>X>X>X>X>X>X>X",
">X>X>X>X>X>X>X>X>X>X>X>X>X>X>X>X>X>X>X>X>X>X>X>X>X>X>X>X>X>X>X>X>X>X>X>X>X>X>X>X>X>X>X>X>X>X>X>X>X>X>X>X>X>X>X>X>X>X>X>X>X>X>X>X",
">X>X>X>X>X>X>X>X>X>X>X>X>X>X>X>X>X>X>X>X>X>X>X>X>X>X>X>X>X>X>X>X>X>X>X>X>X>X>X>X>X>X>X>X>X>X>X>X>X>X>X>X>X>X>X>X>X>X>X>X>X>X>X>X",
">X>X>X>X>X>X>X>X>X>X>X>X>X>X>X>X>X>X>X>X>X>X>X>X>X>X>X>X>X>X>X>X>X>X>X>X>X>X>X>X>X>X>X>X>X>X>X>X>X>X>X>X>X>X>X>X>X>X>X>X>X>X>X>X"
};
