/* XPM */
static char *result[] = {
/* columns rows colors chars-per-pixel */
"50 50 137 2 ",
"   c #656C72",
".  c #686F74",
"X  c #686F75",
"o  c #696F75",
"O  c #6A7075",
"+  c #697076",
"@  c #6A7177",
"#  c #6B7177",
"$  c #6B7277",
"%  c #6B7278",
"&  c #6B7378",
"*  c #6B7379",
"=  c #6C7278",
"-  c #6C7378",
";  c #6C7379",
":  c #6D7379",
">  c #6D7479",
",  c #6D747A",
"<  c #6E747A",
"1  c #6E757A",
"2  c #6E757B",
"3  c #6F767B",
"4  c #6E757C",
"5  c #6F767C",
"6  c #6F767D",
"7  c #70777C",
"8  c #70777D",
"9  c #71777D",
"0  c #71787E",
"q  c #71787F",
"w  c #71797F",
"e  c #72787E",
"r  c #72797E",
"t  c #72797F",
"y  c #737980",
"u  c #727A80",
"i  c #737A80",
"p  c #737A81",
"a  c #737B81",
"s  c #747A80",
"d  c #747B81",
"f  c #747B82",
"g  c #747C82",
"h  c #757C82",
"j  c #757C83",
"k  c #757D83",
"l  c #767D83",
"z  c #767E84",
"x  c #777E84",
"c  c #767E85",
"v  c #777E85",
"b  c #777F85",
"n  c #787F86",
"m  c #788086",
"M  c #798086",
"N  c #798087",
"B  c #798187",
"V  c #7A8187",
"C  c #7A8188",
"Z  c #7B8389",
"A  c #7B838A",
"S  c #7C848B",
"D  c #7D858B",
"F  c #7D858C",
"G  c #7E858C",
"H  c #7E868C",
"J  c #7E868D",
"K  c #7F868D",
"L  c #80888E",
"P  c #80888F",
"I  c #81898F",
"U  c #858C93",
"Y  c #848C94",
"T  c #858D94",
"R  c #868E95",
"E  c #878F95",
"W  c #878F97",
"Q  c #889096",
"!  c #889097",
"~  c #889098",
"^  c #899198",
"/  c #899299",
"(  c #8A9298",
")  c #8A9299",
"_  c #8A939A",
"`  c #8B939A",
"'  c #8B939B",
"]  c #8B949B",
"[  c #8C949B",
"{  c #8C949C",
"}  c #8C959C",
"|  c #8D959C",
" . c #8D959D",
".. c #8D969D",
"X. c #8E969D",
"o. c #8E969E",
"O. c #8E979E",
"+. c #8F979E",
"@. c #8F979F",
"#. c #8F989F",
"$. c #90989F",
"%. c #9098A0",
"&. c #9198A0",
"*. c #9099A0",
"=. c #9199A0",
"-. c #9199A1",
";. c #9299A1",
":. c #919AA1",
">. c #929AA1",
",. c #929AA2",
"<. c #929BA2",
"1. c #939BA2",
"2. c #939BA3",
"3. c #939CA3",
"4. c #949CA3",
"5. c #939CA4",
"6. c #949CA4",
"7. c #949DA4",
"8. c #959DA4",
"9. c #959DA5",
"0. c #959EA5",
"q. c #969EA5",
"w. c #969EA6",
"e. c #969FA6",
"r. c #969FA7",
"t. c #979FA7",
"y. c #97A0A7",
"u. c #98A0A7",
"i. c #97A0A8",
"p. c #98A1A8",
"a. c #99A1A9",
"s. c #99A2A9",
"d. c #99A2AA",
"f. c #9AA2AA",
"g. c #9AA3AA",
"h. c #9AA3AB",
"j. c None",
/* pixels */
"j.j.j.j.j.j.7.>.+.o.X.d.j.j.j.j.j.j.j.j.j.j.j.j.j.j.j.j.j.j.j.j.j.j.j.j.j.j. . .o.o.o.j.j.j.j.j.j.j.",
"j.j.j.j.j.j.a.4.$.>.+.j.j.j.j.j.j.j.j.j.j.j.j.j.j.j.j.j.j.j.j.j.j.j.j.j.j.j.O.} { | #.j.j.j.j.j.j.j.",
"j.j.j.j.j.j.p.>.+.$.o.V l = o u 9 @ , < - @ 2 ; 5 # - 6 2 , t , : % 8 j a C X.X.{ [ +.j.j.j.j.j.j.j.",
"j.j.j.j.j.j.t.=.$.X.=.P 2 0 8 8 d 0 2 8 @ 2 5 2 0 0 , 0 8 0 8 8 h i t 5 8 i  .+.o.$.8.j.j.j.j.j.j.j.",
"j.j.j.j.j.j.2.+.>.:.=.K 8 5 t 5 h i 2 ; 5 0 i 8 d 0 8 h t t 8 0 d h i t i t | | +.1.9.j.j.j.j.j.j.j.",
"j.j.j.j.j.j.,.$.=.=.$.S 5 , 0 8 t 8 8 2 i t 0 t g 0 t 0 t i t 8 0 d d e t 0 _ X.>.=.` j.j.j.j.j.j.j.",
"j.j.j.j.j.j.0.+.>.-.$.G 8 2 2 5 t 0 8 t 0 0 0 t t i t t 5 t 7 , 8 0 t 0 0 p { #.$.=. .j.j.j.j.j.j.j.",
"j.j.j.j.j.j.@.{ =.$.$.U j.j.j.j.j.j.j.j.j.j.j.j.j.j.j.j.j.j.j.j.j.j.j.j.j.j.[ +.X.'  .j.j.j.j.j.j.j.",
"j.j.j.j.j.j.*. .o.,.1.j.j.j.j.j.j.j.j.j.j.j.j.j.j.j.j.j.j.j.j.j.j.j.j.j.j.j.$.Y T ' 6.j.j.j.j.j.j.j.",
"j.j.j.j.j.j.-.{ ^ %.$.j.j.j.j.j.j.j.j.j.j.j.j.j.j.j.j.j.j.j.j.j.j.j.j.j.j.j.o.} ~ X.-.j.j.j.j.j.j.j.",
"j.j.j.j.j.j.@.| [ $.:.j.j.j.j.j.j.j.j.j.j.j.j.j.j.j.j.j.j.j.j.j.j.j.j.j.j.j.1.$.' $.-.j.j.j.j.j.j.j.",
"j.j.j.j.j.j.@. .} >.=.j.j.j.j.j.j.j.j.j.j.j.j.j.j.j.j.j.j.j.j.j.j.j.j.j.j.j.X.%.X.$.] j.j.j.j.j.j.j.",
"j.j.j.j.j.j.-.} ' $.1.j.j.j.j.j.j.j.j.j.j.j.j.j.j.j.j.j.j.j.j.j.j.j.j.j.j.j.9.$.$.,.W j.j.j.j.j.j.j.",
"j.j.j.j.j.j.6. .$.=.1.j.j.j.j.j.j.j.j.j.j.j.j.j.j.j.j.j.j.j.j.j.j.j.j.j.j.j.2.| $.>.O.j.j.j.j.j.j.j.",
"j.j.j.j.j.j.6.%.$.-.#.j.j.j.j.j.j.j.j.j.j.j.j.j.j.j.j.j.j.j.j.j.j.j.j.j.j.j.*.$.X.$.+.j.j.j.j.j.j.j.",
"j.j.j.j.j.j.q.4.1.8.=.j.j.j.j.j.j.j.j.j.j.j.j.j.j.j.j.j.j.j.j.j.j.j.j.j.j.j.+.` [ +.-.j.j.j.j.j.j.j.",
"j.j.j.j.j.j.3.+.q.8.u.j.j.j.j.j.j.j.j.j.j.j.j.j.j.j.j.j.j.j.j.j.j.j.j.j.j.j.+.' } $.@.j.j.j.j.j.j.j.",
"j.j.j.j.j.j.>.@.8.8.>.j.j.j.j.j.j.j.j.j.j.j.j.j.j.j.j.j.j.j.j.j.j.j.j.j.j.j.{ / ] 1.:.j.j.j.j.j.j.j.",
"j.j.j.j.j.j.q.-.<.>.,.j.j.j.j.j.j.j.j.j.j.j.j.j.j.j.j.j.j.j.j.j.j.j.j.j.j.j.*.+.%.>.<.j.j.j.j.j.j.j.",
"j.j.j.j.j.j.+.=.=.3.,.j.j.j.j.j.j.j.j.j.j.j.j.j.j.j.j.j.j.j.j.j.j.j.j.j.j.j.4.4.$.-.$.j.j.j.j.j.j.j.",
"j.j.j.j.j.j.O.=.+.o.8.j.j.j.j.j.j.j.j.j.j.j.j.j.j.j.j.j.j.j.j.j.j.j.j.j.j.j.g.=.>.=.$.j.j.j.j.j.j.j.",
"j.j.j.j.j.j.{ $.$.>.%.f h v n 5 h i k r v v N 2 9 g w 2 n i y 8 g a u N l 2 +.4.1.$.+.j.j.j.j.j.j.j.",
"j.j.j.j.j.j.:.-.O.$.} N i 0 0 5 8 8 0 t t , 8 ; 5 2 , ; 0 5 i 8 5 2 5 i i 8 Q >.,.=.X.j.j.j.j.j.j.j.",
"j.j.j.j.j.j.>.>.{ =.+.h t 0 8 0 t t 0 t i 5 , 8 8 2 2 1 , 2 5 ; ; 4 2 h t 8 ) #.+.+.X.j.j.j.j.j.j.j.",
"j.j.j.j.j.j.>.<.=.=.$.i d 5 i t i 8 t h 0 8 8 5 5 2 ; , 5 t , ; + 5 t 8 t 2 R } o.>.=.j.j.j.j.j.j.j.",
"j.j.j.j.j.j.*.$.$.1.| 8 0 i d d t i d 8 t d 8 , , % @ 2 8 % , 0 2 ; , i i 2 [ O.$.>.>.j.j.j.j.j.j.j.",
"j.j.j.j.j.j.>.>.>.,.@.N Z j.j.S j.p b D j.H I c j.B j.j.j.j.5 b n j.j.j.M f $.-.+.>.+.j.j.j.j.j.j.j.",
"j.j.j.j.j.j.-.>.1.,.7.j.j.j.j.j.j.j.j.j.j.j.j.j.j.j.j.j.j.j.j.j.j.j.j.j.j.j.$.+. .:.>.j.j.j.j.j.j.j.",
"j.j.j.j.j.j.4.=.$. .=.j.j.j.j.j.j.j.j.j.j.j.j.j.j.j.j.j.j.j.j.j.j.j.j.j.j.j.q.=.+.X.4.j.j.j.j.j.j.j.",
"j.j.j.j.j.j.@.o.#.+.X.j.j.j.j.j.j.j.j.j.j.j.j.j.j.j.j.j.j.j.j.j.j.j.j.j.j.j.&.*.<.:.@.j.j.j.j.j.j.j.",
"j.j.j.j.j.j.=.=.<.@.=.j.j.j.j.j.j.j.j.j.j.j.j.j.j.j.j.j.j.j.j.j.j.j.j.j.j.j.7.*.>.4.$.j.j.j.j.j.j.j.",
"j.j.j.j.j.j.+.| ' +.r.j.j.j.j.j.j.j.j.j.j.j.j.j.j.j.j.j.j.j.j.j.j.j.j.j.j.j.1. .4.-.$.1.j.j.j.j.j.j.",
"j.j.j.j.j.j.X.[ +.o.6.j.j.j.j.j.j.j.j.j.j.j.j.j.j.j.j.j.j.j.j.j.j.j.j.j.j.j.<.#.-.%.$.y.j.j.j.j.j.j.",
"j.j.j.j.j.j.| ..>.$.,.j.j.j.j.j.j.j.j.j.j.j.j.j.j.j.j.j.j.j.j.j.j.j.j.j.j.j.i.@.%.1.+.( j.j.j.j.j.j.",
"j.j.j.j.j.j.o.o.%.$.4.j.j.j.j.j.j.j.j.j.j.j.j.j.j.j.j.j.j.j.j.j.j.j.j.j.j.j.! $.=.3.+.4.j.j.j.j.j.j.",
"j.j.j.j.j.j.X.#.{ +.<.j.j.j.j.j.j.j.j.j.j.j.j.j.j.j.j.j.j.j.j.j.j.j.j.j.j.j.y.+.%.=.$.4.j.j.j.j.j.j.",
"j.j.j.j.j.j.X.| [ +.3.j.j.j.j.j.j.j.j.j.j.j.j.j.j.j.j.j.j.j.j.j.j.j.j.j.j.j.h.>.$.*.=.t.j.j.j.j.j.j.",
"j.j.j.j.j.j.@.| =.*.6.j.j.j.j.j.j.j.j.j.j.j.j.j.j.j.j.j.j.j.j.j.j.j.j.j.j.j.g.=.1.:.,.u.j.j.j.j.j.j.",
"j.j.j.j.j.j.o.o.o.=.9.j.j.j.j.j.j.j.j.j.j.j.j.j.j.j.j.j.j.j.j.j.j.j.j.j.j.j.6.@.%.=.:.8.j.j.j.j.j.j.",
"j.j.j.j.j.2.@.%.$.:.e.j.j.j.j.j.j.j.j.j.j.j.j.j.j.j.j.j.j.j.j.j.j.j.j.j.j.j.f.1.:.2.8.w.j.j.j.j.j.j.",
"j.j.j.j.j.o.+.=.3.4.=.$ 8 2 8 v z g V < n 5 v x x 0 l i A F j % z * j.g t : E %.$.1.>.;.j.j.j.j.j.j.",
"j.j.j.j.j.j.X.+.1.=.^ ; ; , 2 2 2 , i t 8 8 5 t i 8 0 0 5 8 5 2 5 5 5 5 8 0 J +.o.o.o.4.j.j.j.j.j.j.",
"j.j.j.j.j.[ $.=.*...! 0 8 2 , , 5 5 i 0 0 2 5 5 8 i t d 2 8 5 2 8 8 0 2 5 ; D } ' +.=.*.j.j.j.j.j.j.",
"j.j.j.j.j.j.=.1.$.o.) d t , , , , 2 0 8 5 2 8 t 8 i d h 2 X X , i t 2 5 , 2 L [ >.=.+.-.j.j.j.j.j.j.",
"j.j.j.j.j.| <.O...%.| t t 0 , 5 5 2 8 8 i 8 t 8 0 d i 0 5 +   , 5 0 , 2 0 ; m o.,.:...*.j.j.j.j.j.j.",
"j.j.j.j.j.s.$.o.@.<.-.i 5 h @ 5 i O # = v i . a h s l 2 8 3 , ; < - q > t & P ` | $.>.<.j.j.j.j.j.j.",
"j.j.j.j.j.0.$.-.$.+.:.j.j.j.j.j.j.j.j.j.j.j.j.j.j.j.j.j.j.j.j.j.j.j.j.j.j.j.j.{ | $.*.7.j.j.j.j.j.j.",
"j.j.j.j.j.a.+.| [ X.>.j.j.j.j.j.j.j.j.j.j.j.j.j.j.j.j.j.j.j.j.j.j.j.j.j.j.j.j.X.{ | } 4.j.j.j.j.j.j.",
"j.j.j.j.j.] $.>.@.O.[ j.j.j.j.j.j.j.j.j.j.j.j.j.j.j.j.j.j.j.j.j.j.j.j.j.j.j.j.'  .$.%.5.j.j.j.j.j.j.",
"j.j.j.j.j.) *.$.+.+.<.j.j.j.j.j.j.j.j.j.j.j.j.j.j.j.j.j.j.j.j.j.j.j.j.j.j.j.j.` +.X.' %.j.j.j.j.j.j."
};
