/* XPM */
static char *result[] = {
/* columns rows colors chars-per-pixel */
"50 50 152 2 ",
"   c gray42",
".  c #6D6D6D",
"X  c gray43",
"o  c #6F6F6F",
"O  c gray44",
"+  c #717171",
"@  c #727272",
"#  c gray45",
"$  c #747474",
"%  c gray46",
"&  c #767676",
"*  c #777777",
"=  c gray47",
"-  c #797979",
";  c gray48",
":  c #7B7B7B",
">  c #7C7C7C",
",  c gray49",
"<  c #7E7E7E",
"1  c gray50",
"2  c #808080",
"3  c #818181",
"4  c #808283",
"5  c gray51",
"6  c #838383",
"7  c #848484",
"8  c #858686",
"9  c #868686",
"0  c gray53",
"q  c #888888",
"w  c #888889",
"e  c #898989",
"r  c gray54",
"t  c gray55",
"y  c #8D8D8D",
"u  c #8E8E8E",
"i  c gray56",
"p  c #909090",
"a  c gray57",
"s  c #929292",
"d  c #939393",
"f  c gray58",
"g  c #959595",
"h  c gray59",
"j  c #979797",
"k  c #989898",
"l  c gray60",
"z  c #9A9A9A",
"x  c #9B9B9B",
"c  c #9D9D9D",
"v  c #9F9F9F",
"b  c #A0A0A0",
"n  c #A2A2A2",
"m  c gray64",
"M  c #A4A4A4",
"N  c #A5A5A5",
"B  c gray65",
"V  c #A7A8A9",
"C  c gray66",
"Z  c #A9A9A9",
"A  c #AAAAAA",
"S  c #A9ABAC",
"D  c #ACACAC",
"F  c gray68",
"G  c #ACAEAF",
"H  c #AFAFAF",
"J  c gray69",
"K  c #B1B1B1",
"L  c #B2B2B2",
"P  c gray70",
"I  c #B4B4B4",
"U  c #B4B6B7",
"Y  c #B6B6B6",
"T  c #B7B7B7",
"R  c gray72",
"E  c #B9B9B9",
"W  c gray73",
"Q  c #BBBBBB",
"!  c #BCBCBC",
"~  c gray74",
"^  c gray",
"/  c gray75",
"(  c #C0C0C0",
")  c #C3C3C3",
"_  c #C3C5C7",
"`  c gray77",
"'  c #C5C5C5",
"]  c gray78",
"[  c gray79",
"{  c #CACACA",
"}  c #CBCBCB",
"|  c #CDCDCD",
" . c gray81",
".. c #CCCED0",
"X. c #D0D0D0",
"o. c #D2D2D2",
"O. c LightGray",
"+. c #D3D5D7",
"@. c gray83",
"#. c #D5D5D5",
"$. c gray84",
"%. c #D7D7D7",
"&. c #D5D7D9",
"*. c #D6D8DA",
"=. c gray85",
"-. c #DADADA",
";. c #DBDCDF",
":. c #DDDDDD",
">. c gray87",
",. c #DEDEDF",
"<. c #DFDFDF",
"1. c #DDDFE1",
"2. c gray88",
"3. c #E1E1E1",
"4. c #E2E2E2",
"5. c #E4E4E4",
"6. c gray90",
"7. c #E6E6E6",
"8. c #E7E7E7",
"9. c #E5E6E8",
"0. c #E6E7E8",
"q. c gray91",
"w. c #E9E9E9",
"e. c #E8E9EB",
"r. c #EAEAEA",
"t. c gray92",
"y. c #E9EBEC",
"u. c #ECECEC",
"i. c gray93",
"p. c gray94",
"a. c #F1F1F1",
"s. c #F1F1F2",
"d. c gray95",
"f. c #F3F3F3",
"g. c #F3F4F5",
"h. c #F4F4F4",
"j. c gray96",
"k. c #F5F6F6",
"l. c #F6F6F6",
"z. c gray97",
"x. c #F7F8F8",
"c. c #F8F8F8",
"v. c #F9F9F9",
"b. c gray98",
"n. c #FAFBFB",
"m. c #FBFBFB",
"M. c gray99",
"N. c #FDFDFD",
"B. c #FDFEFE",
"V. c #FEFEFE",
"C. c white",
"Z. c None",
/* pixels */
"Z.Z.Z.Z.Z.Z.Z.Z.Z.Z.Z.Z.Z.Z.Z.Z.Z.Z.Z.Z.Z.Z.Z.Z.Z.Z.Z.Z.Z.Z.Z.Z.Z.Z.Z.Z.Z.Z.Z.Z.Z.Z.Z.Z.Z.Z.Z.Z.Z.Z.",
"Z.Z.Z.Z.Z.Z.Z.Z.Z.Z.Z.Z.Z.Z.Z.Z.Z.Z.Z.Z.Z.Z.Z.Z.Z.Z.Z.Z.Z.= . Z.Z.Z.Z.Z.Z.Z.Z.Z.Z.Z.Z.Z.Z.Z.Z.Z.Z.Z.",
"Z.Z.Z.Z.Z.Z.Z.Z.Z.Z.Z.Z.Z.Z.Z.Z.Z.Z.Z.Z.Z.Z.Z.Z.Z.Z.% s ] -.-.@.B 5 Z.Z.Z.Z.Z.Z.Z.Z.Z.Z.Z.Z.Z.Z.Z.Z.",
"Z.Z.Z.Z.Z.Z.Z.Z.Z.Z.Z.Z.Z.Z.Z.Z.Z.Z.Z.Z.Z.Z.Z.Z.Z.7 @.V.C.C.C.C.C.d.M o Z.Z.Z.Z.Z.Z.Z.Z.Z.Z.Z.Z.Z.Z.",
"Z.Z.Z.Z.Z.Z.Z.Z.Z.Z.Z.Z.Z.Z.Z.Z.Z.Z.Z.Z.Z.Z.Z.Z.e p.C.C.C.C.C.C.C.C.V.J % Z.Z.Z.Z.Z.Z.Z.Z.Z.Z.Z.Z.Z.",
"Z.Z.Z.Z.Z.Z.Z.Z.Z.Z.Z.Z.Z.Z.Z.Z.Z.Z.Z.Z.Z.Z.Z.% <.C.C.C.C.C.C.C.C.C.C.M.f Z.Z.Z.Z.Z.Z.Z.Z.Z.Z.Z.Z.Z.",
"Z.Z.Z.Z.Z.Z.Z.Z.Z.Z.Z.Z.Z.Z.Z.Z.Z.Z.Z.Z.Z.Z.Z.N C.C.C.C.C.C.C.C.C.C.C.C.3.& Z.Z.Z.Z.Z.Z.Z.Z.Z.Z.Z.Z.",
"Z.Z.Z.Z.Z.Z.Z.Z.Z.Z.Z.Z.Z.Z.Z.Z.Z.Z.Z.Z.Z.Z.& %.C.C.C.C.C.C.C.C.C.C.C.C.N.y Z.Z.Z.Z.Z.Z.Z.Z.Z.Z.Z.Z.",
"Z.Z.Z.Z.Z.Z.Z.Z.Z.Z.Z.Z.Z.Z.Z.Z.Z.Z.Z.Z.Z.Z.+ h.C.C.C.C.C.C.C.C.C.C.C.C.C.b Z.Z.Z.Z.Z.Z.Z.Z.Z.Z.Z.Z.",
"Z.Z.Z.Z.Z.Z.Z.Z.Z.Z.Z.Z.Z.Z.Z.Z.Z.Z.Z.Z.Z.Z.X h.C.C.C.C.C.C.C.C.C.C.C.C.C.Z Z.Z.Z.Z.Z.Z.Z.Z.Z.Z.Z.Z.",
"Z.Z.Z.Z.Z.Z.Z.Z.Z.Z.Z.Z.Z.Z.Z.Z.Z.Z.Z.Z.Z.Z.$ a.C.C.C.C.C.C.C.C.C.C.C.C.C.j Z.Z.Z.Z.Z.Z.Z.Z.Z.Z.Z.Z.",
"Z.Z.Z.Z.Z.Z.Z.Z.Z.Z.Z.Z.Z.Z.Z.Z.Z.Z.Z.Z.Z.Z.Z.[ C.C.C.C.C.C.C.C.C.C.C.C.m.9 Z.Z.Z.Z.Z.Z.Z.Z.Z.Z.Z.Z.",
"Z.Z.Z.Z.Z.Z.Z.Z.Z.Z.Z.Z.Z.= u p p > @ Z.Z.Z.Z.j V.C.C.C.C.C.C.C.C.C.C.C.O.% Z.Z.Z.Z.Z.Z.Z.Z.Z.Z.Z.Z.",
"Z.Z.Z.Z.Z.Z.Z.Z.Z.Z.Z.= Z h.V.C.V.v.4.( c 5 @ + { C.C.C.C.C.C.C.C.C.C.z.q Z.Z.Z.Z.Z.Z.Z.Z.Z.Z.Z.Z.Z.",
"Z.Z.Z.Z.Z.Z.Z.Z.Z.Z.Z.C V.C.C.C.C.C.C.C.C.b.,.G w -.C.C.C.C.C.C.C.C.m.h Z.Z.Z.Z.Z.Z.Z.Z.Z.Z.Z.Z.Z.Z.",
"Z.Z.Z.Z.Z.Z.Z.Z.Z.Z.7 l.C.C.C.C.C.C.C.C.C.C.C.9...8 Q c.C.C.C.C.V.=.y Z.Z.Z.Z.Z.9 P x 2 Z.Z.Z.Z.Z.Z.",
"Z.Z.Z.Z.Z.Z.Z.Z.Z.& ' C.C.C.C.C.C.C.C.C.C.C.C.n.;.+.V q n ~ / Z y = Z.Z.Z.Z.Z.O <.C.C.:.; Z.Z.Z.Z.Z.",
"Z.Z.Z.Z.Z.Z.Z.Z.Z.0 M.C.C.i.x Y 3.V.C.C.C.C.C.C.x.1.*.&._ U S 4 Z.Z.Z.Z.Z.Z.; M q ) C.C.^ Z.Z.Z.Z.Z.",
"Z.Z.Z.Z.Z.Z.Z.Z.Z.E C.C.V.c Z.Z.% r ] M.C.C.C.C.C.B.g.e.0.y.s.k.F : Z.Z.Z.Z.% 3.f.v X.| I Z.Z.Z.Z.Z.",
"Z.Z.Z.Z.Z.Z.Z.Z.d c.C.C.{ = Z.Z.Z.Z.@ i w.C.C.C.C.C.C.C.C.C.C.C.C.o.% Z.Z.Z.Z.H p r 3 r u Z.Z.Z.Z.Z.",
"Z.Z.Z.Z.Z.Z.Z.; u.C.C.C.P $ Z.Z.Z.Z.Z.N j v.C.C.C.C.C.C.C.C.C.C.C.C.2.2 Z.Z.q p.M.p.m.! 1 Z.Z.Z.Z.Z.",
"Z.Z.Z.Z.Z.Z.Z.z C.C.C.C.M.i Z.Z.Z.Z.1 f.V.C.C.C.C.C.C.C.C.C.C.C.C.C.C.=.< 7 u.C.C.w.d ; Z.Z.Z.Z.Z.Z.",
"Z.Z.Z.Z.Z.Z.Z.D C.C.C.C. .5 Z.Z.Z.Z.! C.C.C.C.C.C.C.C.C.C.C.C.C.C.C.C.C.v 8.C.C.V.k Z.Z.Z.Z.Z.Z.Z.Z.",
"Z.Z.Z.Z.Z.Z.Z.5 u.C.C.l.5 Z.Z.Z.Z.2 h.C.C.C.C.C.C.C.C.C.C.C.m.C.C.C.C.C.N.C.C.C.%.* Z.Z.Z.Z.Z.Z.Z.Z.",
"Z.Z.Z.Z.Z.Z.Z.Z.1 H } m Z.Z.Z.Z.Z.B C.C.C.C.C.C.C.C.C.C.C.V.i N j.C.C.C.C.C.C.N.u Z.Z.Z.Z.Z.Z.Z.Z.Z.",
"Z.Z.Z.Z.Z.Z.Z.Z.Z.Z.Z.Z.Z.Z.Z.Z.* 5.C.C.C.C.C.C.C.C.C.C.C.[ # Z.- I w.C.C.C.V.P Z.Z.Z.Z.Z.Z.Z.Z.Z.Z.",
"Z.Z.Z.Z.Z.Z.Z.Z.Z.Z.Z.Z.Z.Z.Z.Z.u C.C.C.C.C.C.C.C.C.C.C.v.9 Z.Z.Z.Z.- i ! ) z & Z.Z.Z.Z.Z.Z.Z.Z.Z.Z.",
"Z.Z.Z.Z.Z.Z.Z.Z.Z.Z.Z.Z.Z.Z.Z.Z.F C.C.C.C.C.C.C.C.C.C.C.' Z.Z.Z.Z.Z.Z.Z.Z.Z.Z.Z.Z.Z.Z.Z.Z.Z.Z.Z.Z.Z.",
"Z.Z.Z.Z.Z.Z.Z.Z.Z.Z.Z.Z.Z.Z.Z.Z. .C.C.C.C.C.C.C.C.C.C.c.3 Z.Z.Z.Z.Z.Z.Z.Z.Z.Z.Z.Z.Z.Z.Z.Z.Z.Z.Z.Z.Z.",
"Z.Z.Z.Z.Z.Z.Z.Z.Z.Z.Z.Z.Z.Z.Z.: 4.C.C.C.C.C.C.C.C.C.C.R Z.Z.Z.Z.Z.Z.Z.Z.Z.Z.Z.Z.Z.Z.Z.Z.Z.Z.Z.Z.Z.Z.",
"Z.Z.Z.Z.Z.Z.Z.Z.Z.Z.Z.Z.Z.Z.Z.@ 7.C.C.C.C.C.C.C.C.C.5.: Z.Z.Z.Z.Z.Z.Z.Z.Z.Z.Z.Z.Z.Z.Z.Z.Z.Z.Z.Z.Z.Z.",
"Z.Z.Z.Z.Z.Z.Z.: x g > Z.Z.Z.Z.$ >.C.C.C.C.C.C.C.o.8.9 Z.Z.Z.Z.Z.Z.Z.Z.Z.Z.Z.Z.Z.Z.Z.Z.Z.Z.Z.Z.Z.Z.Z.",
"Z.Z.Z.Z.Z.Z.< =.C.V.! = Z.Z.Z.t W C.C.C.C.C.C.C.@.% Z.Z.Z.Z.Z.Z.Z.Z.Z.Z.Z.Z.Z.Z.Z.Z.Z.Z.Z.Z.Z.Z.Z.Z.",
"Z.Z.Z.Z.Z.9 6.C.C.C.V.$.2 Z.c p.t N.C.C.C.C.C.C.C.l Z.Z.Z.Z.Z.Z.Z.Z.Z.Z.Z.Z.Z.Z.Z.Z.Z.Z.Z.Z.Z.Z.Z.Z.",
"Z.Z.Z.Z.= 5.C.C.C.C.C.C.i.R h.C.C ` C.C.C.C.C.C.C.4.- Z.Z.Z.Z.Z.Z.Z.Z.Z.Z.Z.Z.Z.Z.Z.Z.Z.Z.Z.Z.Z.Z.Z.",
"Z.Z.Z.Z.q I B d N m.C.C.C.C.C.C.z.i >.C.C.C.C.C.C.C.W Z.Z.Z.Z.Z.Z.Z.Z.Z.Z.Z.Z.Z.Z.Z.Z.Z.Z.Z.Z.Z.Z.Z.",
"Z.Z.Z.Z.Z.Z.Z.Z.Z.v M.C.C.C.C.C.C.8.i 3.C.C.C.C.C.C.m.p Z.Z.Z.Z.Z.Z.Z.Z.Z.Z.Z.Z.Z.Z.Z.Z.Z.Z.Z.Z.Z.Z.",
"Z.Z.Z.Z.Z.Z.Z.Z.Z.Z.n b.C.C.C.C.C.C.#.- w.C.C.C.C.C.C.4.: Z.Z.Z.Z.Z.Z.Z.Z.Z.Z.Z.Z.Z.Z.Z.Z.Z.Z.Z.Z.Z.",
"Z.Z.Z.Z.Z.Z.Z.Z.Z.Z.Z.d i.C.C.C.l.~ 1 Z.6 r.C.C.C.C.C.C.T Z.Z.Z.Z.Z.Z.Z.Z.Z.Z.Z.Z.Z.Z.Z.Z.Z.Z.Z.Z.Z.",
"Z.Z.Z.Z.Z.Z.Z.Z.Z.Z.Z.Z.; v ~ A 7 Z.Z.Z.Z.0 t.C.C.C.C.C.m.a Z.Z.Z.Z.Z.Z.Z.Z.Z.Z.Z.Z.Z.Z.Z.Z.Z.Z.Z.Z.",
"Z.Z.Z.Z.Z.Z.Z.Z.Z.Z.Z.Z.Z.Z.Z.Z.Z.Z.Z.Z.Z.Z.7 w.C.C.C.C.C.u.1 Z.Z.Z.Z.Z.Z.Z.Z.Z.Z.Z.Z.Z.Z.Z.Z.Z.Z.Z.",
"Z.Z.Z.Z.Z.Z.Z.Z.Z.Z.Z.Z.Z.Z.Z.Z.Z.Z.Z.Z.Z.Z.Z.6 7.C.C.C.C.C.-.* Z.Z.Z.Z.Z.Z.Z.Z.Z.Z.Z.Z.Z.Z.Z.Z.Z.Z.",
"Z.Z.Z.Z.Z.Z.Z.Z.Z.Z.Z.Z.Z.Z.Z.Z.Z.Z.Z.Z.Z.Z.Z.Z.1 q.C.C.C.C.C.<.% Z.O < g , Z.Z.Z.Z.Z.Z.Z.Z.Z.Z.Z.Z.",
"Z.Z.Z.Z.Z.Z.Z.Z.Z.Z.Z.Z.Z.Z.Z.Z.Z.Z.Z.Z.Z.Z.Z.Z.Z.1 -.C.C.C.C.C.=.K $.v.c.0 Z.Z.Z.Z.Z.Z.Z.Z.Z.Z.Z.Z.",
"Z.Z.Z.Z.Z.Z.Z.Z.Z.Z.Z.Z.Z.Z.Z.Z.Z.Z.Z.Z.Z.Z.Z.Z.Z.Z.- | C.C.C.C.C.C.C.V.C Z.Z.Z.Z.Z.Z.Z.Z.Z.Z.Z.Z.Z.",
"Z.Z.Z.Z.Z.Z.Z.Z.Z.Z.Z.Z.Z.Z.Z.Z.Z.Z.Z.Z.Z.Z.Z.Z.Z.Z.Z., I b.C.C.C.C.C.L + Z.Z.Z.Z.Z.Z.Z.Z.Z.Z.Z.Z.Z.",
"Z.Z.Z.Z.Z.Z.Z.Z.Z.Z.Z.Z.Z.Z.Z.Z.Z.Z.Z.Z.Z.Z.Z.Z.Z.Z.Z.Z.Z.a q.C.C.b.L   Z.Z.Z.Z.Z.Z.Z.Z.Z.Z.Z.Z.Z.Z.",
"Z.Z.Z.Z.Z.Z.Z.Z.Z.Z.Z.Z.Z.Z.Z.Z.Z.Z.Z.Z.Z.Z.Z.Z.Z.Z.Z.Z.Z.Z.; L ` p Z.Z.Z.Z.Z.Z.Z.Z.Z.Z.Z.Z.Z.Z.Z.Z.",
"Z.Z.Z.Z.Z.Z.Z.Z.Z.Z.Z.Z.Z.Z.Z.Z.Z.Z.Z.Z.Z.Z.Z.Z.Z.Z.Z.Z.Z.Z.Z.Z.Z.Z.Z.Z.Z.Z.Z.Z.Z.Z.Z.Z.Z.Z.Z.Z.Z.Z.",
"Z.Z.Z.Z.Z.Z.Z.Z.Z.Z.Z.Z.Z.Z.Z.Z.Z.Z.Z.Z.Z.Z.Z.Z.Z.Z.Z.Z.Z.Z.Z.Z.Z.Z.Z.Z.Z.Z.Z.Z.Z.Z.Z.Z.Z.Z.Z.Z.Z.Z."
};
