/* XPM */
static char *result[] = {
/* columns rows colors chars-per-pixel */
"50 50 36 1 ",
"  c #6F696A",
". c #736D6D",
"X c #76706E",
"o c #766F70",
"O c #777171",
"+ c #7A7475",
"@ c #7E7778",
"# c #7F7879",
"$ c #827C7D",
"% c #857F81",
"& c #878081",
"* c #8A8485",
"= c #8D8689",
"- c #8F8889",
"; c #90878B",
": c #928C8D",
"> c #958E90",
", c #988F94",
"< c #979092",
"1 c #999395",
"2 c #9E9699",
"3 c #9E989A",
"4 c #A2979F",
"5 c #A29C9D",
"6 c #A397A0",
"7 c #A59CA1",
"8 c #A89EA4",
"9 c #A7A1A2",
"0 c #A9A3A5",
"q c #AEA6A9",
"w c #AFA8AA",
"e c #B0A7AA",
"r c #B2AAAD",
"t c #B5AFB1",
"y c #B6B0B2",
"u c #B8B2B4",
/* pixels */
"<><><><-3yyyrttty7=790999000$er00eeee&<<<11<<<<<:0",
">1<>1><-<yuuyyttu7=999099009+0reweerr*<<1:<><<3<-0",
":>>1<<<&*tyyytwq5=O=5899073-O5erwrrwe$1<11<><<3<O9",
"%#$#%+o+%*=;*==oO*<1=$+++X$:,=:$$&&%$X$&->::-*$+O@",
"1><<1>+26787666=:reeee*$590098093:X9ww0<.+&-<35593",
"1>><>>#46466666,2rrete:;5995090999%utyyy$:09999999",
"<>>11>@47666666,1ee0ee>>9095909009-ytyty->95009030",
"<><1>1+66666768,<reeee;19999599999>uyyyt->99099099",
">11<>,+66468866,;wwrww-<9509599709=uuyty:-90099095",
"&*==*&.*>,,,1;&++-2321@O-30999053-+wyyyy&X#&-:::*&",
"<$+=:4211,:++&-<>>=&.=3w5:#+@+#@&&&@..$3wwtttw5*+*",
"0>>wereerrr*>1<<11<1#ttyyyw+<<1<1<<:<&<yruuyttr3-<",
"022wrweerre>>11<1><<&tuytyy*<<-<:<<<1-<tuuyyrrr3<1",
"912wrrrrree>:1<<111>&yyuwwy$1<<<<<<><::uttyyryt3-1",
"0>2wqrrreee:;1>11111&wuyuyyO<<<<<<<<<-:uttytrry--1",
"+.@>,,,;;;;O%;>:>-==O#>1>*& O@%&$&$OXXO&-=-:;$X.+%",
"&&--$X:59wrww5>&.;55505:$.$><<<>:-$X$9eeeeeee$>599",
"1>1<<$ytyyyytyyr$ereeeee5+<1<111211$5reeeteer;5059",
"<1111-ttyttytytt;reeeeee0$>>:111112$9teerrete;5959",
"><>111tutyuyyuyt:eqeee0e5$>,111<<<:&0eeeeeeee*0555",
"<1<11-twyyyutett:e0eeeee9@<<111:<<>$0errrerer*5099",
"<<<1-$tuuuyytyuw=eeeeeee1.*::1:1<<&.=1550eq08$4599",
"+++XOO@-:50w05>@.$$$$$*:<2:$X.++$-:-$ +#$$$$$$.$$&",
"5&*0ewrw05>:O+3985<.5ryuttuyr5+1yuyur$19005055;X>1",
"6-8rrerrerrr&=95997=yytytttyyy&9tyttt-590005001&<<",
"6-qrretrrrqe*>95999:ywtytuyyty-9tytrt:999009001*><",
"6*qrereeeqqr%,98909-ytyyyutwuu-9uuuut-999990003&11",
"8$0rereeqrww$199990*yyytrrtruu-9uuutt*900009901$<1",
";$$$%>,4<>-%.=00753O10wwrtyr0<X*9rw9>X&>335533-#><",
"erq04$$:233971=OO#**=&&&$##%*<1-+.:1593>&.#----<-*",
"errre,809995907&2668466873$909993:rwwwwww<5ttyytyy",
"errtr,500009990&6626686685=0999911rwrwwww<9yyyyttt",
"rrrre:500995000&9216876884*89900<3rreerre>0ttrtutt",
"reeee$:59009055$<33686686>&80990>3rrqrrqr:0uutrytt",
",11=$ X$X$$XX+XX X+&=:%%@+%-*--*+*20wwww0%&2357999",
"5,.5rrtyye5<$X&---:-&%o>0uuutt3.@*:>>-%O1500933=X#",
"05*uuurrtttt3*3><><<<<#turttttt$990990w-yytyytyy#1",
"00:uutytyyry3-1<1<1<<:$tutyuttt*9909009<trryuttt&1",
"85>rettuyywy1:><111<:<&tyuytttu&0909979-tttyyyty-1",
"5&$-350ryyw1+-:<<<1<:<$wtytrttt%0009999&ttuyytty-<",
"$&---&&+X+*:>1<$#$*-&-#X#*1351-+&-:<::$X-157333*+$",
"1<<<<1<1->yyyyu$&59000905<+1wrrrww3X*0trttt9X+*:11",
":<<<1<:1<>uytuu&3009900009*0ryytttt*tututttr$1<111",
"<11<<<<1>>yytuu$3055590000-wyyyyttt&tytuutyt&:3111",
"1<<<1<1:::uuuuuX5000900000*uyyytttt$wyyuuutt$<<<11",
"111><11<*-tytt9 1900900000$tyyytuyt#3tyuuytw+><<11",
"&:1<:-$$XX$--&#$$&&&&*--&+ &<<>::-*$$##**=*$X#$&->",
"&#+X:5590591+395990993&X39093++->1<<1<:-#.<wttw:X-",
"1<-$rtwrqqeq&9509999995:ttrtt&-1>><<11>>-&uttwu9#9",
"<<:$rwwrteeq*99099559059tryuy->>:<>>><>1:*utttt9*9"
};
