/* XPM */
static char *result[] = {
/* columns rows colors chars-per-pixel */
"50 50 47 1 ",
"  c #D5A137",
". c #D6A53A",
"X c #D8A73C",
"o c #DAAB3E",
"O c #DFB03E",
"+ c #E0B23F",
"@ c #CF9D40",
"# c #D49F42",
"$ c #D5A344",
"% c #D9A644",
"& c #DCAD42",
"* c #DEB242",
"= c #E0AE46",
"- c #E2B543",
"; c #E4BA45",
": c #E9BD43",
"> c #E1B64A",
", c #E5BC49",
"< c #E8BF48",
"1 c #E7C147",
"2 c #ECC446",
"3 c #E6C34A",
"4 c #EAC44A",
"5 c #EECA4D",
"6 c #F0C846",
"7 c #F1CC4D",
"8 c #EED14C",
"9 c #F6D34D",
"0 c #F9D64D",
"q c #FEDC4E",
"w c #EECD50",
"e c #F0CD51",
"r c #EED151",
"t c #F5D550",
"y c #F9D751",
"u c #F3DB54",
"i c #FFDE51",
"p c #F4DE58",
"a c #F6E256",
"s c #FDE255",
"d c #F6E259",
"f c #F8E55A",
"g c #FCEC5C",
"h c #FFF25E",
"j c #FCEE61",
"k c #FFF361",
"l c None",
/* pixels */
"llllllllllllllllllllllllllllllllllllllllllllllllll",
"llllllllllllllllllllllllllllllllllllllllllllllllll",
"llllllllllllllllllllllllllllllllllllllllllllllllll",
"llllllllllllllllllllllllllllllllllllllllllllllllll",
"lllllllllllllllllllqqqq0qq092++lllllllllllllllllll",
"llllllllllllllllyiqqqqqqqqqiq64;%#llllllllllllllll",
"llllllllllllllqiqqqqqqqqqqqqq477<-o%llllllllllllll",
"lllllllllllle7qsqqqqq926960i0755555;;;llllllllllll",
"lllllllllll7577qq96---+--XXo;35255ww>$$lllllllllll",
"lllllllll7555552----+-+O-XX&&X.<55757>XX&lllllllll",
"llllllll357554--+----+*--XXXXoX *5e5ee;=-lllllllll",
"llllllllw7e5<Oo---;---;>-XooXXoXXX;7e57>$#llllllll",
"lllllll75ee;X&&*-;dhkw*,*&rjd**o...;77t9*&*lllllll",
"lllllly0te4-ooX*14khkf333*hkkd***X..:9t97--*llllll",
"lllllyy976Xoo;gjkkkhkkkkkkkkkkhkkp..-7t90>##llllll",
"lllllt997:ooo8kkhkkhkkkkkkkkkhkhhg=--:t9t5>&>lllll",
"llll99992+--o3hkjkkkkkkkkkkkhhkkkf;;--4tw5,=*lllll",
"llll0909----*o***3kkh8ww3*ukhho&;;--->-4554#$%llll",
"llll9992----;-****ghg-;*&o*hk8o*;;-*-**455e---llll",
"lll5799;+-+-+*-;33155351*3**;*1*o*--*-*;e5e,-&llll",
"lll7552----<;O-kkkhhkkhhhhhhhhhu***&----475,%##lll",
"lll775:+--;;-+;hkkhkhkkhhhhhhkhg*-;--;--5755->>lll",
"lll5e7;---*---1hkha8585888uuahhh<-------<ee5&&&lll",
"lll755<;-+----1hkh81;**OoO*;3hhh:->-;-;-3ee5%%%lll",
"lll755<-O*;;O+1hhhhkghgggghhhhhg1;-;--;-<5w5,;>lll",
"lll55e<-;1-+++1hhhhhhhghhhhhhhhh4--;;---<557&*%lll",
"lll5ee3;*OOO-++hhhr*;*&***318hhh;+---,--4555%$$lll",
"llle55<;1O**+OOhhhdrr83w8338ahhh<+++----4572+-,lll",
"lll7654-;*OOOooghhhhkkkkkkkhhhhh--++=:--575<&%&lll",
"lll7555>*O;*OOouhhhhkkkkkkhghhhp--------77e<&%$lll",
"llll557,*****O*;O&oo*3kkkk1O*OoO--:-+--20ty,;-llll",
"llll5555**O**3ggghkkkhkhkhgfgdap7---+--79tt%%%llll",
"llll75w7;-+-;4khhhkhhkhkkhhkkhhhk5o-;-:9094%%=llll",
"lllll7e97;----hhhhhhhhhkkkhkhhhkh5o*-+7009,>;lllll",
"llllly99y4-oXo;38ru8uahhkkdauuuuuOooo20993%%=lllll",
"llllllyy99-XXXX&X....*khhh*O--*&Oooo;799t-&&llllll",
"lllllll09e5&XX&XX&XXXXtpu5->;--&OoO*55794--lllllll",
"lllllll97755*X&X&XXXX%*-;>;>-;--oo*57we,$$$lllllll",
"llllllll47eew-X&&XX X&-;**;;;;-;*;55w74>*=llllllll",
"lllllllll4wwwr3&X&X .o;>;;;;-;-;5555w4-*,lllllllll",
"llllllllll7eeee5<*XXXo----;>;49q7575,%%%llllllllll",
"lllllllllllteee555y72:24427tiiiqt5w,>&llllllllllll",
"lllllllllllllw7eeeqqqqqiiiiiiqqq04---lllllllllllll",
"lllllllllllllll45tiqqqiisiiiiqq7=%$lllllllllllllll",
"llllllllllllllllll9siiiiqiiqt4:-llllllllllllllllll",
"llllllllllllllllllllllllllllllllllllllllllllllllll",
"llllllllllllllllllllllllllllllllllllllllllllllllll",
"llllllllllllllllllllllllllllllllllllllllllllllllll",
"llllllllllllllllllllllllllllllllllllllllllllllllll",
"llllllllllllllllllllllllllllllllllllllllllllllllll"
};
