/* XPM */
static char *result[] = {
/* columns rows colors chars-per-pixel */
"50 50 136 2 ",
"   c #9C4F17",
".  c #9C4F1A",
"X  c #9D521E",
"o  c #A0541E",
"O  c #9E5320",
"+  c #A15621",
"@  c #A35923",
"#  c #A45E2C",
"$  c #B44F3A",
"%  c #B6523D",
"&  c #B8553F",
"*  c #A6602C",
"=  c #A76230",
"-  c #A96632",
";  c #AC6A35",
":  c #AC6B3A",
">  c #B27237",
",  c #B47539",
"<  c #B6783C",
"1  c #B87A3D",
"2  c #915F45",
"3  c #B95640",
"4  c #BB5942",
"5  c #936047",
"6  c #956349",
"7  c #9A694E",
"8  c #BD644D",
"9  c #AF7143",
"0  c #B27444",
"q  c #B77A41",
"w  c #B87D43",
"e  c #B27649",
"r  c #B57B4C",
"t  c #BD6952",
"y  c #B67E51",
"u  c #B87F51",
"i  c #C16D55",
"p  c #C3735B",
"a  c #C67B63",
"s  c #C87D65",
"d  c #CD963E",
"f  c #CE983F",
"g  c #BB8147",
"h  c #BC844C",
"j  c #BA8354",
"k  c #BF8953",
"l  c #BA8558",
"z  c #BD8A5D",
"x  c #BF8D61",
"c  c #B48E73",
"v  c #BA967A",
"b  c #BD9A7F",
"n  c #CE9740",
"m  c #CF9941",
"M  c #CF9C4D",
"N  c #D09B43",
"B  c #D19E4C",
"V  c #C18C56",
"C  c #C18D5A",
"Z  c #C3915D",
"A  c #D2A254",
"S  c #D4A65B",
"D  c #D5A85D",
"F  c #C08F61",
"G  c #CA856C",
"H  c #C9886E",
"J  c #C39364",
"K  c #C79867",
"L  c #C89967",
"P  c #C4956B",
"I  c #C6996B",
"U  c #C99C6D",
"Y  c #CC8C72",
"T  c #CE9177",
"R  c #C79A72",
"E  c #C99E73",
"W  c #CF9279",
"Q  c #C99F78",
"!  c #D0967C",
"~  c #D1997F",
"^  c #D6AA63",
"/  c #D7AE6D",
"(  c #D8AF6C",
")  c #CCA274",
"_  c #CDA57A",
"`  c #CFA87C",
"'  c #D7AF70",
"]  c #D8AF70",
"[  c #D0A97D",
"{  c #D9B274",
"}  c #DAB67B",
"|  c #DBB87E",
" . c #C09E82",
".. c #D39C82",
"X. c #C3A286",
"o. c #CDA781",
"O. c #CFA984",
"+. c #C5A589",
"@. c #C9AA8F",
"#. c #D2AD83",
"$. c #D5A48A",
"%. c #D3AC8B",
"&. c #D4B087",
"*. c #DCBA83",
"=. c #D5B38B",
"-. c #DEBE8B",
";. c #D7AB91",
":. c #D9AD92",
">. c #CFB396",
",. c #D6B691",
"<. c #D9B493",
"1. c #D7B893",
"2. c #D9BA94",
"3. c #D2B79A",
"4. c #DBB499",
"5. c #DBBE9A",
"6. c #DEBDA1",
"7. c #DFC08F",
"8. c #DFC192",
"9. c #DDC19D",
"0. c #E0C394",
"q. c #E1C69B",
"w. c #E2C89F",
"e. c #DFC5A3",
"r. c #DFC9AC",
"t. c #E0C5A5",
"y. c #E2CAA5",
"u. c #E2C5A9",
"i. c #E3CCAC",
"p. c #E6D1AF",
"a. c #E4CFB1",
"s. c #E7D3B5",
"d. c #E8D5B7",
"f. c #E7D5B8",
"g. c #E8D6B9",
"h. c #E9D8BC",
/* pixels */
"l z z z z z J J _ g.9.} / ' ' ' { { / i.e.=.[ U ) ` U ) o.e.g.e.<.$.$...$.! H Y t.a.#.o.` o._ R _ Q ",
". X O o X O O O : g.D m m m m f m m f y.K > , , > , , , , K f.p % & 3 3 & % $ % ..4.. O + X O O O O ",
"X X X + + + + @ ; g.A m m m m d N m m y.J < > , , > , , > L s.t % % & & % & % % ..O.X + O X X @ O O ",
"  X o + + @ + + ; f.B m m f d f f f f w.K < , , < , , , < J f.p % & % & % & % % T _ . O X X O X O + ",
"_ R _ #.Q R R J =.g.9.*.*.*.*.-.*.*.-.s.5.K K ) _ ) ) [ %.e.d.:.H H H H H H Y $.6.6.y l l y l l z P ",
"_ ) E 1.d.I F x x x J J P O.s.6...~ Y T T T T Y 5.i.9.=.#.[ _ ` [ &.y.s.i.9.2.&.=.=.#.[ ) 5.s.=.=.#.",
", , , ) g.# O O O O O O O @ a.Y & & & % & & & % ;.[ , < < > , , , , V d.) , < , , < < q < Z p.< , > ",
", > , ) g.= O + @ O O O O @ r.a % & & % & 3 & % $.[ , < , , > , , , h s.U < < < , < < > ; Z i.> > > ",
", , < E g.# + @ @ + + + O O i.G & 3 & & 3 3 3 $ %.%.> , , , < > > , k g.) , < < < , , , > J y., > , ",
"` #._ 5.g.` J I Q I R F R _ s.4.$.W ! W ....W ..u.t.Z z K ) U U [ &.8.h.5.) K Z K J K K _ 5.i.C C C ",
") U ) _ ) ) _ ` 5.s.2.` ) L U ) ) ) ) a.e.%._ P J J J P O.e.f.u.2.2.&.=.=.#.` ) i.s.#.R R o.o.R _ O.",
"> , < < < , < , j s.h > , , 1 < , < < r.j O X X X X X X O C g.Z < < < 1 < < < , ` 5.X O X + O O + O ",
", > > > < < < > w s.h , , > , , , , , 9.l O X O O O O O @ z g.k 1 < < < < , < > ` @.o + O @ O O + O ",
"> , > > , > < > g s.w > > > , , , < < y.z + O O O O O O X l g.J > < , > , > , > ) _ + @ O O @ O + O ",
"#.[ [ #._ ) ` ` <.s.,.[ ` #.#.#.=.#.#.s.=.r l z P x J P o.5.g.<.E L Z J I U E =.e.5.h u 9 e j z z F ",
"L P I ,.g.*.} } } { } | } 0.h.u.[ ` ) ) ` ` ` ) e.s.q.-.*.*.7.| *.7.w.g.i.9.2.=.%.%.o.Q P 5.g.2.,.1.",
"O O O x h.N d f f f f N f B s._ , > , , > > > , =.*.f f f f f f d n S g.P O O X o X X + X r p.1 < < ",
"O O O x s.m f N N N N N f N i.K < , , , > , , > =.*.m f m f d f n n A g.l O O O @ @ + @ X r i.> < , ",
"O O . J g.B N N N N f f f N i.Z < , > , , < > > ,.*.f m m n n n d d M f.x O O O O O + + + r y.> , > ",
"Q R P <.h.*.{ | -.} } } } *.s.2.[ _ ) ) [ ` ) ` e.y.^ D ^ { ' / { *.8.s.,.l e 9 e r 0 j P =.i.k C V ",
"_ ) _ ) ) [ [ _ 5.g.=.J I F P x J J z u.i.5.#.[ #.[ _ ` =.u.f.y.;.%._ Q Q Q R P u.f.=.=.=.1.&.&.=.1.",
", < 1 , , < 1 1 V g.0 + O + + O O O + e.L , , < < , , < , L s.: X X X . + O X O P 9.> , , < < , < , ",
", 1 1 1 , 1 1 1 h g.: + O O + X O O @ e.U , , , , , , < , K f.: + O + X + + + + R ,., , > , < < , , ",
", , , , , , , 1 h g.- + O + + X O + + 5.U < < < < < < , , U g.9 @ + O + X X + + J =., , , < , < , , ",
"_ ) _ [ [ [ _ [ =.g.&.I K I J R P P R i.,.Z J U ) ) ) [ [ 9.s.` z u r r y l l Q 5.e.F C k z J C J ) ",
"[ [ [ 9.d.#.[ _ #.[ #.#.=.5.g.i.-.-.*.} | | *.*.i.p.t.2.=.&.[ ` #.#.u.f.a.t.6.4.:.:.:.o.~ 6.s.,.,.#.",
", , , U d.w , , < 1 < < < q s.{ f m d d f m m f 0.[ < < < > , , , , h s.Y 3 4 % % % % % & s i.@ + X ",
", , , _ d.1 , 1 < < > < < < i.' m m d d f d d m 7.=.< < < < , , < , g d.H 3 3 3 3 3 & % % a e.  + O ",
"< , , ) d.1 , < < < > < , < i.( m m m f d d d m 8.` , < < < < < < < V d.T % & % 3 3 3 % & a 5.X O . ",
") ) U =.d.#.) ) _ ) K U E ` s.q.| | { { | ' ' { y.9.C k k K J ) ) _ ,.s.<.s p p a p a a Y :.a.: 0 : ",
") ) [ ) ) [ [ #.9.s.,.R I J P R Q R P i.s.9.=.o.` #.` &.2.i.f.i.w.5.=.1.=.&.#.&.i.d.,.=.=.1.2.=.=.2.",
", , , , < , , , z f.0 O X O X X O X X 1.U < > > > < , , , U g.V , < , , < , , < [ t., , > , , , , , ",
", , , , , > > > g g.- X X X O X O X O 1.J , , > > , , , , U g.j , , , < < < < , _ 1.< , < , > > > > ",
", , , > > > > > q g.# X O O O . X O X 6.J , > < > , < , , U g.k , > , < < , , , ` =., , , , > > > , ",
") ) _ [ ) ) _ _ #.s._ J x P x R P J R i.=.Z Z K U K I ) [ 5.g.&.L C C C K K K ` 9.y.C J V V C z Z U ",
"*.| *.y.s.=.#._ #.#._ %.=.5.s.s.=.-.*.-.*.-.*.*.p.s.u.4.;.;.%.$.$.;.u.f.a.e.9.1.1.=.,.O._ e.d.9.9.2.",
"f d m { g.q , , > < > < , w s.} d d d d d d d m -...3 & & % % % % % i s.P X O @ X + + O X j s.< , , ",
"f f n } f.q < , > > > > < < r.^ f f d d m f d f 8.~ & 3 & & & % % % 8 d.l + O O + O O O X r i., > < ",
"f n n { g.q > , > > < > , < e.( m m n f m m m f 7.~ & & & & 3 & % % 8 s.z O O O O O O X O 0 y.< , , ",
"] { { 0.f.) I U ) ) E U ) _ a.-.{ ' ' ( } { { { y.6.i i p G a s G Y $.s.%.0 : : : 9 : r z #.s.V V V ",
"P Q _ R P _ E o.1.h.9.#.` _ _ ` o.) &.s.i.5.O.O.R _ R #.o.i.g.i.9.2.1.=.2.=.#.[ i.g.2.2.1.2.5.1.2.2.",
"  O O O + O O X : g.Z , > , > , , , > e.y O + X O X O X o z d.Z , , < < 1 < , , O.e., > < , , < < , ",
"X X + + @ O O + * s.h , , , , > , > , e.j O @ @ O O O O + y g.V > > < , < < > > ) 2., , , > < < < < ",
"  + O O O O O O - f.g < , > , > , > > e.l O @ O O O O + + l g.C , < < , , < < , ) =.< , > < , , < < ",
"z C z J J x x x _ f.[ ) ) E E ) ) ) ) p.o.> 0 l l z l x P 2.g.#.U J C k k Z J ) 9.9.k V k h V Z Z L ",
"2.7.*.w.f.>.@.X.X.+.+.@.>.3.f.i.9.2.&.&.%.=.#.#.i.s.p.9.8.0.0.2.7.0.y.f.s.y.u.9.9.9.9.=.=.y.f.y.w.y.",
"f m N { f.6 5 5 2 2 5 5 6 7 i.) < , < > > , , , =.-.m f n m f d d f S s.) < , , , < , , < K p.N f m ",
"m N m } g.7 6 6 6 6 5 5 6 6 r.P > , > , > , > , ,.} f f d n n d d f M s.L < , > , , , , > J i.f f f ",
"N N N } d.7 6 2 6 6 6 6 6 6 e.K , > > < , , , , =.| m f d f f f f d M f.I < , > > > , , > J y.f d d ",
"{ { { 0.s. .c c v c c c c b s.=.I I L E U E U U t.q.A A D ^ / ^ / / *.g.2.k g h k j V Z L ,.p.A A B "
};
