/* XPM */
static char *west[] = {
/* columns rows colors chars-per-pixel */
"64 64 165 2 ",
"   c #000000",
".  c #0A0400",
"X  c #02060B",
"o  c #0F0B09",
"O  c #05090B",
"+  c #130C05",
"@  c #150E08",
"#  c #180B05",
"$  c #1A120D",
"%  c #060C13",
"&  c #070F18",
"*  c #0A121B",
"=  c #161616",
"-  c #10141B",
";  c #231509",
":  c #201D18",
">  c #2E1C13",
",  c #2D2216",
"<  c #352518",
"1  c #3E2D18",
"2  c #382617",
"3  c #0B1524",
"4  c #141821",
"5  c #161C28",
"6  c #1A1E23",
"7  c #1D232B",
"8  c #192C3E",
"9  c #172637",
"0  c #2F2822",
"q  c #352B22",
"w  c #3D352E",
"e  c #202830",
"r  c #27303C",
"t  c #3B3B3B",
"y  c #463320",
"u  c #43362A",
"i  c #4E3C2F",
"p  c #50402E",
"a  c #484037",
"s  c #4E463D",
"d  c #564639",
"f  c #634B3B",
"g  c #182D40",
"h  c #263245",
"j  c #2C3748",
"k  c #2F3E55",
"l  c #313E55",
"z  c #2E4151",
"x  c #314151",
"c  c #364960",
"v  c #394865",
"b  c #3F5972",
"n  c #434443",
"m  c #474A4F",
"M  c #4A4A4A",
"N  c #5E5145",
"B  c #4C4F51",
"V  c #525252",
"C  c #565C5F",
"Z  c #675141",
"A  c #6B5848",
"S  c #745E4C",
"D  c #745D47",
"F  c #7F634D",
"G  c #60605F",
"H  c #68635E",
"J  c #435066",
"K  c #475865",
"L  c #43546A",
"P  c #485768",
"I  c #48586A",
"U  c #5F5F60",
"Y  c #425E76",
"T  c #5D6062",
"R  c #5E6368",
"E  c #53667B",
"W  c #53687C",
"Q  c #5D6A7E",
"!  c #646464",
"~  c #6D6D6D",
"^  c #7E7E7F",
"/  c #767A7F",
"(  c #8A7257",
")  c #8C7458",
"_  c #8A7767",
"`  c #9B816E",
"'  c #A28D77",
"]  c #A89079",
"[  c #5C7286",
"{  c #566986",
"}  c #60718A",
"|  c #687F94",
" . c #7D8082",
".. c #69809B",
"X. c #75889B",
"o. c #7B94AA",
"O. c #818181",
"+. c #9C968F",
"@. c #868C95",
"#. c #B19E8C",
"$. c #A39E95",
"%. c #BBA68D",
"&. c #B7A38B",
"*. c #ABA39A",
"=. c #BDA790",
"-. c #BEAA92",
";. c #BCA898",
":. c #94ABBD",
">. c #A6A3AA",
",. c #ABB1B5",
"<. c #BBBBBA",
"1. c #C1AC93",
"2. c #C2B19B",
"3. c #CEBAA9",
"4. c #D1BEA8",
"5. c #C0B9BA",
"6. c #C6C0BC",
"7. c #D6C4B0",
"8. c #DECFBF",
"9. c #D7CCBC",
"0. c #9BB0C4",
"q. c #9FB3C8",
"w. c #A0B5C7",
"e. c #A4B7CC",
"r. c #BECEDE",
"t. c #B7C3D3",
"y. c #BCCEE0",
"u. c #C0D1DE",
"i. c #DCDCDC",
"p. c #E2D4C3",
"a. c #EADCCE",
"s. c #E9DED3",
"d. c #EDE2D4",
"f. c #E4E1DD",
"g. c #EEE8DE",
"h. c #EEE5DB",
"j. c #F1E6DA",
"k. c #F3E8DC",
"l. c #CFDFEE",
"z. c #D2DBE4",
"x. c #D3DFEB",
"c. c #DFE2E5",
"v. c #DCE6EF",
"b. c #DAE7F2",
"n. c #DCE8F3",
"m. c #E2E0E1",
"M. c #EFEBE7",
"N. c #EDEFEE",
"B. c #E0E4EB",
"V. c #F0E7E0",
"C. c #F6EDE4",
"Z. c #F0EFEB",
"A. c #EDF0EC",
"S. c #FDF5ED",
"D. c #E3ECF3",
"F. c #ECEEF0",
"G. c #EDF3F7",
"H. c #E7F2FA",
"J. c #EBF4FC",
"K. c #EFF8FF",
"L. c #F4F5F5",
"P. c #FEFBF5",
"I. c #F4FBFF",
"U. c #FFFFFF",
"Y. c #F7F6F7",
/* pixels */
"N.Y.Y.Y.Y.Y.Y.Y.Y.Y.Y.Y.Y.Y.Y.Y.Y.Y.Y.Y.Y.Y.Y.Y.Y.Y.Y.Y.Y.Y.Y.Y.Y.Y.Y.Y.Y.Y.Y.Y.Y.Y.Y.Y.Y.Y.Y.Y.Y.Y.Y.Y.Y.Y.Y.Y.Y.Y.Y.Y.Y.Y.Y.F.",
"Y.U.U.U.U.U.U.U.U.U.U.U.U.U.U.U.U.U.U.U.U.U.U.U.U.U.U.U.U.U.U.U.U.U.U.U.U.U.U.U.U.U.U.U.U.U.U.U.U.U.U.U.U.U.U.U.U.U.U.U.U.U.U.Y.",
"Y.U.U.U.U.U.U.U.U.U.U.U.U.U.U.U.U.U.U.U.U.U.U.U.U.U.U.U.U.U.U.U.U.U.U.U.U.U.U.U.U.U.U.U.U.U.U.U.U.U.U.U.U.U.U.U.U.U.U.U.U.U.U.Y.",
"Y.U.U.U.U.U.U.U.U.U.U.U.U.U.U.U.U.U.U.U.U.U.U.U.U.U.U.U.U.U.U.U.U.U.U.U.U.U.U.U.U.U.U.U.U.U.U.U.U.U.U.U.U.U.U.U.U.U.U.U.U.U.U.Y.",
"Y.U.U.U.U.U.U.U.U.U.U.U.U.U.U.U.U.U.U.U.U.U.U.U.U.U.U.U.U.U.U.U.U.U.U.U.U.U.U.U.U.U.U.U.U.U.U.U.U.U.U.U.U.U.U.U.U.U.U.U.U.U.U.Y.",
"Y.U.U.U.U.U.U.U.U.U.U.U.U.U.U.U.U.U.U.U.U.U.U.U.U.U.U.U.U.U.U.U.U.U.U.U.U.U.U.U.U.U.U.U.U.U.U.U.U.U.U.U.U.U.U.U.U.U.U.U.U.U.U.Y.",
"Y.U.U.U.U.U.U.U.U.U.U.U.U.U.U.U.U.U.U.U.U.U.U.U.U.U.U.U.U.U.U.U.U.U.U.U.U.U.U.U.U.U.U.U.U.U.U.U.U.U.U.U.U.U.U.U.U.U.U.U.U.U.U.Y.",
"Y.U.U.U.U.U.U.U.U.U.U.U.U.U.U.U.U.U.U.U.U.U.U.U.U.U.U.U.U.U.U.U.U.U.U.U.U.U.U.U.U.U.U.U.U.U.U.U.U.U.U.P.5.D.U.U.U.U.U.U.U.U.U.Y.",
"Y.U.U.U.U.U.U.U.U.U.U.U.U.U.U.U.U.U.U.U.U.U.U.U.U.U.U.U.U.U.U.U.U.U.U.U.U.U.U.U.U.U.U.U.U.U.U.U.U.U.U.;.$ L v.U.U.U.U.U.U.U.U.Y.",
"Y.U.U.U.U.U.U.U.U.U.U.U.U.U.U.U.U.U.U.U.U.U.U.U.U.U.U.U.U.U.U.U.U.U.U.U.U.U.U.U.U.U.U.U.U.U.U.U.U.U.9.2     J n.U.U.U.U.U.U.U.Y.",
"Y.U.U.U.U.U.U.U.Y.Y.Y.Y.Y.Y.Y.Y.Y.Y.Y.Y.Y.Y.Y.Y.Y.Y.Y.Y.Y.Y.Y.Y.Y.Y.Y.Y.Y.Y.Y.Y.Y.Y.Y.Y.Y.Y.Y.Y.U.s.i         L D.U.U.U.U.U.U.Y.",
"Y.U.U.U.U.U.U.h.A t t t t t t t t t t t t t t t t t t t t t t t t t t t t t t t t t t t t t t t t 0           X :.U.U.U.U.U.U.Y.",
"Y.U.U.U.U.U.U.P.*.^ O.O.O.O.O.O.O.O.O.O.O.O.O.O.u     r  .O.O.O.O.O.N     5 / O.O.O.O.O.O.O.O.O.O.O.O.O.O.O.O.@.v.U.U.U.U.U.U.Y.",
"Y.U.U.U.U.U.U.U.U.U.U.U.U.U.U.U.U.U.U.U.U.U.U.U.)     W U.U.U.U.U.U.1..   l K.U.U.U.U.U.U.U.U.U.U.U.U.U.U.U.U.U.U.U.U.U.U.U.U.Y.",
"Y.U.U.U.U.U.U.U.U.U.U.U.U.U.U.U.U.U.U.U.U.U.U.U.(     E U.U.U.U.U.U.%..   l J.U.U.U.U.U.U.U.U.U.U.U.U.U.U.U.U.U.U.U.U.U.U.U.U.Y.",
"Y.U.U.U.U.U.U.U.U.U.U.U.U.U.U.U.U.U.U.U.U.U.U.U.(     E U.U.U.U.U.U.%..   l J.U.U.U.U.U.U.U.U.U.U.U.U.U.U.U.U.U.U.U.U.U.U.U.U.Y.",
"Y.U.U.U.U.U.U.U.U.U.U.U.U.U.U.U.U.U.U.U.U.U.U.U.(     E U.U.U.U.U.U.%..   l J.U.U.U.U.U.U.U.U.U.U.U.U.U.U.U.U.U.U.U.U.U.U.U.U.Y.",
"Y.U.U.U.U.U.U.U.U.U.U.U.U.U.U.U.U.U.U.U.U.U.U.U.(     E U.U.U.U.U.U.%..   l J.U.U.U.U.U.U.U.U.U.U.U.U.U.U.U.U.U.U.U.U.U.U.U.U.Y.",
"Y.U.U.U.U.U.U.U.U.U.U.U.U.U.U.U.U.U.U.U.U.U.U.U.(     E U.U.U.U.U.U.%..   k J.U.U.U.U.U.U.U.U.U.U.U.U.U.U.U.U.U.U.U.U.U.U.U.U.Y.",
"Y.U.U.U.U.U.U.U.U.U.U.U.U.U.U.U.U.U.U.U.U.U.U.U.(     E U.U.U.U.U.U.%..   l J.U.U.U.U.U.U.U.U.U.U.U.M.Y.U.U.U.U.U.U.U.U.U.U.U.Y.",
"Y.U.U.U.U.U.U.U.U.U.U.Z.F.U.U.U.U.U.U.U.U.U.U.U.(     E U.U.U.U.U.U.%..   l J.U.U.U.U.U.U.U.U.U.U.h.d Q D.U.U.U.U.U.U.U.U.U.U.Y.",
"Y.U.U.U.U.U.U.U.U.U.U.2.t @.z.U.U.U.U.U.U.U.U.U.)     W U.U.U.U.U.U.%..   l J.U.U.U.U.U.U.U.U.U.C.S     P v.U.U.U.U.U.U.U.U.U.Y.",
"Y.U.U.U.U.U.U.U.U.U.U.-.    7 C ! ! ! ! ! ! ! ! q     e ! ! ! ! ! ! s     4 U ! ! ! ! ! ! ! ! ! s         L D.U.U.U.U.U.U.U.U.Y.",
"Y.U.U.U.U.U.U.U.U.U.U.-..   % m V V V V V V V V ,     7 V V V V V V w     - B V V V V V V V V V M @       h x.U.U.U.U.U.U.U.U.Y.",
"Y.U.U.U.U.U.U.U.U.U.U.-..   g b.U.U.U.U.U.U.U.U.F     } U.U.U.U.U.U.%..   l J.U.U.U.U.U.U.U.U.U.k.1     I z.U.U.U.U.U.U.U.U.U.Y.",
"Y.U.U.U.U.U.U.U.U.U.U.-..   8 n.U.U.U.U.U.U.U.P.Z     ..U.U.U.U.U.U.%..   l J.U.U.U.U.U.U.U.U.U.k.1   X w.U.U.U.U.U.U.U.U.U.U.Y.",
"Y.U.U.U.U.U.U.U.U.U.U.-..   8 n.U.U.U.U.U.U.U.S.d     o.U.U.U.U.U.U.%..   l J.U.U.U.U.U.U.U.U.U.k.1   X q.U.U.U.U.U.U.U.U.U.U.Y.",
"Y.U.U.U.U.U.U.U.U.U.U.-..   8 n.U.U.U.U.U.U.U.C.y   X 0.U.U.U.U.U.U.%..   k J.U.U.U.U.U.U.U.U.U.k.1   X q.U.U.U.U.U.U.U.U.U.U.Y.",
"Y.U.U.U.U.U.U.U.U.U.U.-..   8 n.U.U.U.U.U.U.U.a.>   3 y.U.U.U.U.U.U.%..   l J.U.U.U.U.U.m.Y.U.U.k.1   X q.U.U.U.U.U.U.U.U.U.U.Y.",
"Y.U.U.U.U.U.U.U.U.U.U.-..   8 n.U.U.U.U.U.U.U.4.+   8 b.U.U.U.U.U.U.%..   l J.U.U.U.U.C.s | U.U.k.1   X q.U.U.U.U.U.U.U.U.U.U.Y.",
"Y.U.U.U.U.U.U.U.U.U.U.-..   8 n.U.U.U.U.U.U.U.]     L I.U.U.U.U.U.U.%..   l J.U.U.U.U.d., Y U.U.k.1   X q.U.U.U.U.U.U.U.U.U.U.Y.",
"Y.U.U.U.U.U.U.U.U.U.U.-..   8 n.U.U.U.U.U.U.P.A     o.U.U.U.U.U.U.U.%..   l J.U.U.U.U.p.; Y U.U.k.1   X q.U.U.U.U.U.U.U.U.U.U.Y.",
"Y.U.U.U.U.U.U.U.U.U.U.-..   8 n.U.U.U.U.U.U.d.2   3 r.U.U.U.U.U.U.U.%..   l J.U.U.U.U.7.# b I.U.k.1   X q.U.U.U.U.U.U.U.U.U.U.Y.",
"Y.U.U.U.U.U.U.U.U.U.U.-..   8 n.U.U.U.U.U.U.&..   L I.U.U.U.U.U.U.U.%..   l J.U.U.U.U.=.  v I.U.k.1   X q.U.U.U.U.U.U.U.U.U.U.Y.",
"Y.U.U.U.U.U.U.U.U.U.U.-..   8 n.U.U.U.U.U.S.f   % 0.U.U.U.U.U.U.U.U.%..   l J.U.U.U.U.`   j H.U.k.1   X q.U.U.U.U.U.U.U.U.U.U.Y.",
"Y.U.U.U.U.U.U.U.U.U.U.-..   8 n.U.U.U.U.U.3.#   c J.U.U.U.U.U.U.U.U.%..   l J.U.U.U.U.D   9 l.U.k.1   X q.U.U.U.U.U.U.U.U.U.U.Y.",
"Y.U.U.U.U.U.U.U.U.U.U.-..   8 n.U.U.U.U.S.Z   & w.U.U.U.U.U.U.U.U.U.%..   h n.U.U.U.p.<   X X.G.j.1   X q.U.U.U.U.U.U.U.U.U.U.Y.",
"Y.U.U.U.U.U.U.U.U.U.U.-..   8 n.U.U.U.U.#..   [ I.U.U.U.U.U.U.U.U.U.1..   X P ,.<.$.u       O E f.1   X q.U.U.U.U.U.U.U.U.U.U.Y.",
"Y.U.U.U.U.U.U.U.U.U.U.-..   8 n.U.U.U.p.2   x v.U.U.U.U.U.U.U.U.U.U.8.;                       { g.1   X q.U.U.U.U.U.U.U.U.U.U.Y.",
"Y.U.U.U.U.U.U.U.U.U.U.-..   8 n.U.U.k.f   8 r.U.U.U.U.U.U.U.U.U.U.U.P._ o                   h r.k.1   X q.U.U.U.U.U.U.U.U.U.U.Y.",
"Y.U.U.U.U.U.U.U.U.U.U.-..   8 n.U.C.S   9 t.U.U.U.U.U.U.U.U.U.U.U.U.U.Y.6.+.! U ! G C T @.,.B.U.k.1   X q.U.U.U.U.U.U.U.U.U.U.Y.",
"Y.U.U.U.U.U.U.U.U.U.U.-..   8 n.V.S   h t.U.U.U.U.U.U.U.U.U.U.U.U.U.U.U.U.U.U.U.U.U.U.U.U.U.U.U.k.1   X q.U.U.U.U.U.U.U.U.U.U.Y.",
"Y.U.U.U.U.U.U.U.U.U.U.-..   8 n.' . K z.U.U.U.U.U.U.U.U.U.U.U.U.U.U.U.U.U.U.U.U.U.U.U.U.U.U.U.U.k.1   X q.U.U.U.U.U.U.U.U.U.U.Y.",
"Y.U.U.U.U.U.U.U.U.U.U.-..   8 n.s.>.G.U.U.U.U.U.U.U.U.U.U.U.U.U.U.U.U.U.U.U.U.U.U.U.U.U.U.U.U.U.k.1   X q.U.U.U.U.U.U.U.U.U.U.Y.",
"Y.U.U.U.U.U.U.U.U.U.U.-..   8 n.U.U.U.U.U.U.U.U.U.U.U.U.U.U.U.U.U.U.U.U.U.U.U.U.U.U.U.U.U.U.U.U.k.1   X q.U.U.U.U.U.U.U.U.U.U.Y.",
"Y.U.U.U.U.U.U.U.U.U.U.-..   8 n.U.U.U.U.U.U.U.U.U.U.U.U.U.U.U.U.U.U.U.U.U.U.U.U.U.U.U.U.U.U.U.U.k.1   X q.U.U.U.U.U.U.U.U.U.U.Y.",
"Y.U.U.U.U.U.U.U.U.U.U.-..   8 n.U.U.U.U.U.U.U.U.U.U.U.U.U.U.U.U.U.U.U.U.U.U.U.U.U.U.U.U.U.U.U.U.k.1   X q.U.U.U.U.U.U.U.U.U.U.Y.",
"Y.U.U.U.U.U.U.U.U.U.U.-..   8 n.U.U.U.U.U.U.U.U.U.U.U.U.U.U.U.U.U.U.U.U.U.U.U.U.U.U.U.U.U.U.U.U.k.1   X q.U.U.U.U.U.U.U.U.U.U.Y.",
"Y.U.U.U.U.U.U.U.U.U.U.-..   8 b.U.U.U.U.U.U.U.U.U.U.U.U.U.U.U.U.U.U.U.U.U.U.U.U.U.U.U.U.U.U.U.U.j.1   X q.U.U.U.U.U.U.U.U.U.U.Y.",
"Y.U.U.U.U.U.U.U.U.U.U.-..   % n M M M M M M M M M M M M M M M M M M M M M M M M M M M M M M M M n +   X q.U.U.U.U.U.U.U.U.U.U.Y.",
"Y.U.U.U.U.U.U.U.U.U.U.-..   * R ~ ~ ~ ~ ~ ~ ~ ~ ~ ~ ~ ~ ~ ~ ~ ~ ~ ~ ~ ~ ~ ~ ~ ~ ~ ~ ~ ~ ~ ~ ~ ~ H $   X q.U.U.U.U.U.U.U.U.U.U.Y.",
"Y.U.U.U.U.U.U.U.U.U.U.-..   g n.U.U.U.U.U.U.U.U.U.U.U.U.U.U.U.U.U.U.U.U.U.U.U.U.U.U.U.U.U.U.U.U.k.1   X q.U.U.U.U.U.U.U.U.U.U.Y.",
"Y.U.U.U.U.U.U.U.U.U.U.-..   8 n.U.U.U.U.U.U.U.U.U.U.U.U.U.U.U.U.U.U.U.U.U.U.U.U.U.U.U.U.U.U.U.U.k.1   X q.U.U.U.U.U.U.U.U.U.U.Y.",
"Y.U.U.U.U.U.U.U.U.U.U.-.    8 n.U.U.U.U.U.U.U.U.U.U.U.U.U.U.U.U.U.U.U.U.U.U.U.U.U.U.U.U.U.U.U.U.k.1   X q.U.U.U.U.U.U.U.U.U.U.Y.",
"Y.U.U.U.U.U.U.U.U.U.U.2.: = z n.U.U.U.U.U.U.U.U.U.U.U.U.U.U.U.U.U.U.U.U.U.U.U.U.U.U.U.U.U.U.U.U.k.p = 6 e.U.U.U.U.U.U.U.U.U.U.Y.",
"Y.U.U.U.U.U.U.U.U.U.U.Y.i.i.c.U.U.U.U.U.U.U.U.U.U.U.U.U.U.U.U.U.U.U.U.U.U.U.U.U.U.U.U.U.U.U.U.U.U.f.i.i.Y.U.U.U.U.U.U.U.U.U.U.Y.",
"Y.U.U.U.U.U.U.U.U.U.U.U.U.U.U.U.U.U.U.U.U.U.U.U.U.U.U.U.U.U.U.U.U.U.U.U.U.U.U.U.U.U.U.U.U.U.U.U.U.U.U.U.U.U.U.U.U.U.U.U.U.U.U.Y.",
"Y.U.U.U.U.U.U.U.U.U.U.U.U.U.U.U.U.U.U.U.U.U.U.U.U.U.U.U.U.U.U.U.U.U.U.U.U.U.U.U.U.U.U.U.U.U.U.U.U.U.U.U.U.U.U.U.U.U.U.U.U.U.U.Y.",
"Y.U.U.U.U.U.U.U.U.U.U.U.U.U.U.U.U.U.U.U.U.U.U.U.U.U.U.U.U.U.U.U.U.U.U.U.U.U.U.U.U.U.U.U.U.U.U.U.U.U.U.U.U.U.U.U.U.U.U.U.U.U.U.Y.",
"Y.U.U.U.U.U.U.U.U.U.U.U.U.U.U.U.U.U.U.U.U.U.U.U.U.U.U.U.U.U.U.U.U.U.U.U.U.U.U.U.U.U.U.U.U.U.U.U.U.U.U.U.U.U.U.U.U.U.U.U.U.U.U.Y.",
"Y.U.U.U.U.U.U.U.U.U.U.U.U.U.U.U.U.U.U.U.U.U.U.U.U.U.U.U.U.U.U.U.U.U.U.U.U.U.U.U.U.U.U.U.U.U.U.U.U.U.U.U.U.U.U.U.U.U.U.U.U.U.U.Y.",
"Y.U.U.U.U.U.U.U.U.U.U.U.U.U.U.U.U.U.U.U.U.U.U.U.U.U.U.U.U.U.U.U.U.U.U.U.U.U.U.U.U.U.U.U.U.U.U.U.U.U.U.U.U.U.U.U.U.U.U.U.U.U.U.Y.",
"Y.U.U.U.U.U.U.U.U.U.U.U.U.U.U.U.U.U.U.U.U.U.U.U.U.U.U.U.U.U.U.U.U.U.U.U.U.U.U.U.U.U.U.U.U.U.U.U.U.U.U.U.U.U.U.U.U.U.U.U.U.U.U.Y.",
"A.Y.Y.Y.Y.Y.Y.Y.Y.Y.Y.Y.Y.Y.Y.Y.Y.Y.Y.Y.Y.Y.Y.Y.Y.Y.Y.Y.Y.Y.Y.Y.Y.Y.Y.Y.Y.Y.Y.Y.Y.Y.Y.Y.Y.Y.Y.Y.Y.Y.Y.Y.Y.Y.Y.Y.Y.Y.Y.Y.Y.Y.Y.N."
};
