/* XPM */
static char *east[] = {
/* columns rows colors chars-per-pixel */
"64 64 186 2 ",
"   c #000000",
".  c #0B0503",
"X  c #0B0905",
"o  c #03060A",
"O  c #0D0B09",
"+  c #07090B",
"@  c #140A06",
"#  c #190E07",
"$  c #110D0A",
"%  c #1B140E",
"&  c #15110B",
"*  c #0B0E13",
"=  c #0D131B",
"-  c #11151A",
";  c #13191E",
":  c #1B1B1B",
">  c #1B1612",
",  c #211C18",
"<  c #322A1D",
"1  c #382B1F",
"2  c #151B22",
"3  c #1B2126",
"4  c #1E2A35",
"5  c #1E2839",
"6  c #20252B",
"7  c #2E2E2E",
"8  c #2C2723",
"9  c #3C2F28",
"0  c #342D25",
"q  c #202734",
"w  c #242B33",
"e  c #242E39",
"r  c #27323D",
"t  c #343434",
"y  c #3B3B3B",
"u  c #43332A",
"i  c #4A3C2A",
"p  c #403730",
"a  c #4B3F38",
"s  c #473C34",
"d  c #4E402C",
"f  c #4C413A",
"g  c #5F4D36",
"h  c #58473C",
"j  c #604E37",
"k  c #615037",
"l  c #625038",
"z  c #2D3543",
"x  c #263542",
"c  c #353F52",
"v  c #36454F",
"b  c #344353",
"n  c #3A4958",
"m  c #534D41",
"M  c #5D4C42",
"N  c #444F5D",
"B  c #4C545C",
"V  c #545556",
"C  c #55565C",
"Z  c #604C40",
"A  c #6C5847",
"S  c #695548",
"D  c #765E4E",
"F  c #675A52",
"G  c #785F50",
"H  c #76604E",
"J  c #796151",
"K  c #435669",
"L  c #4C5B6B",
"P  c #465567",
"I  c #5A606D",
"U  c #5A6573",
"Y  c #526778",
"T  c #58677C",
"R  c #556A7E",
"E  c #636F7A",
"W  c #6C757E",
"Q  c #867464",
"!  c #887768",
"~  c #8A7B68",
"^  c #917E71",
"/  c #82807D",
"(  c #8F8073",
")  c #938273",
"_  c #99897A",
"`  c #A6907D",
"'  c #5A6C86",
"]  c #6F7A8A",
"[  c #767F89",
"{  c #7B7E81",
"}  c #647C92",
"|  c #69849C",
" . c #668199",
".. c #788594",
"X. c #7791A6",
"o. c #7893A8",
"O. c #808080",
"+. c #8A8A8A",
"@. c #898887",
"#. c #93908B",
"$. c #808D9E",
"%. c #818C96",
"&. c #949494",
"*. c #959698",
"=. c #AD9A8A",
"-. c #AD9883",
";. c #B09A85",
":. c #A69D91",
">. c #B6A494",
",. c #879EAF",
"<. c #8493A7",
"1. c #95A0AD",
"2. c #9CADBE",
"3. c #A1A8AE",
"4. c #B2A9A1",
"5. c #B8B1A5",
"6. c #A0A6B0",
"7. c #A5ACB4",
"8. c #AEAFB0",
"9. c #B0AFB0",
"0. c #A4B0BB",
"q. c #B8B9B9",
"w. c #C4B7AC",
"e. c #C3B9B0",
"r. c #CFC2B7",
"t. c #C6C1BB",
"y. c #D9CABC",
"u. c #A3B4C3",
"i. c #AEBCC7",
"p. c #BEC4CD",
"a. c #B3C0CE",
"s. c #B6C4D1",
"d. c #B9C8D3",
"f. c #C7C7C7",
"g. c #C8C7C4",
"h. c #C5C7CA",
"j. c #CECECE",
"k. c #CEC9C2",
"l. c #D3CBC1",
"z. c #D0CDC9",
"x. c #DBD3CD",
"c. c #C4CBD3",
"v. c #C1CDDC",
"b. c #CBD2DA",
"n. c #C8D1D5",
"m. c #DFD7D4",
"M. c #D1D6DE",
"N. c #D0D1D1",
"B. c #E5D8CC",
"V. c #E7DED5",
"C. c #E9E1DA",
"Z. c #CFD7E1",
"A. c #D9DFE6",
"S. c #D3DFEA",
"D. c #D6E0E7",
"F. c #DDE4EB",
"G. c #D6E2EC",
"H. c #E1E1E1",
"J. c #EEE7E1",
"K. c #E1E6ED",
"L. c #E5EAEC",
"P. c #ECEDEE",
"I. c #EFE9E1",
"U. c #F3ECE5",
"Y. c #F3EFEA",
"T. c #F8EFE8",
"R. c #EDF0EC",
"E. c #F6F1ED",
"W. c #FEF7EF",
"Q. c #FEF8EF",
"!. c #EBEDF0",
"~. c #E4ECF3",
"^. c #EEF3FA",
"/. c #EFF2F4",
"(. c #F3F4F4",
"). c #FAF7F2",
"_. c #FEF9F2",
"`. c #F2F6FA",
"'. c #F5FBFE",
"]. c #F9FFFF",
"[. c #F8FDFF",
"{. c #FFFFFC",
"}. c #FFFFFD",
"|. c #FDFFFF",
" X c #FFFFFF",
".X c #FFFFFF",
/* pixels */
"P.(.(.(.(.(.(.(.(.(.(.(.(.(.(.(.(.(.(.(.(.(.(.(.(.(.(.(.(.(.(.(.(.(.(.(.(.(.(.(.(.(.(.(.(.(.(.(.(.(.(.(.(.(.(.(.(.(.(.(.(.(.(./.",
"(. X X X X X X X X X X X X X X X X X X X X X X X X X X X X X X X X X X X X X X X X X X X X X X X X X X X X X X X X X X X X X X(.",
"(. X X X X X X X X X X X X X X X X X X X X X X X X X X X X X X X X X X X X X X X X X X X X X X X X X X X X X X X X X X X X X X(.",
"(. X X X X X X X X X X X X X X X X X X X X X X X X X X X X X X X X X X X X X X X X X X X X X X X X X X X X X X X X X X X X X X(.",
"(. X X X X X X X X X X X X X X X X X X X X X X X X X X X X X X X X X X X X X X X X X X X X X X X X X X X X X X X X X X X X X X(.",
"(. X X X X X X X X X X X X X X X X X X X X X X X X X X X X X X X X X X X X X X X X X X X X X X X X X X X X X X X X X X X X X X(.",
"(. X X X X X X X X X X X X X X X X X X X X X X X X X X X X_.q.8.8.f.P. X X X X X X X X X X X X X X X X X X X X X X X X X X X X(.",
"(. X X X X X X X X X X X X X X X X X X X X X X X X X X X XW.g     * w <. X X X X X X X X X X X X X X X X X X X X X X X X X X X(.",
"(. X X X X X X X X X X X X X X X X X X X X X X X X X X X X_.g       * .. X X X X X X X X X X X X X X X X X X X X X X X X X X X(.",
"(. X X X X X X X X X X X X X X X X X X X X X X X X X X X X).g     b p. X X X X X X X X X X X X X X X Xx.M. X X X X X X X X X X(.",
"(. X X X X X X X X X X X X X X X X X X X X X X X X X X X X_.g     |  X X X X X X X X X X X X X X X XV.u e d. X X X X X X X X X(.",
"(. X X X X X X X X X X X X X X X X X X X X X X X X X X X X_.g     |  X X X X X X X X X X X X X X XT.A     w d. X X X X X X X X(.",
"(. X X X X X X X).P.(.(.(.(.P.P.(.(.(.(.P.(.(.(.(.(.(.(.(.I.g     } (.(.(.(.(.P.(.(.(.(.(.(.(.(.Y.~         r v. X X X X X X X(.",
"(. X X X X X X Xy.s 7 7 7 7 7 7 7 7 7 7 7 7 7 7 7 7 7 7 7 7 $     - 7 7 7 7 7 7 7 7 7 7 7 7 7 7 7 X           '  X X X X X X X(.",
"(. X X X X X X X).4.&.&.&.&.&.&.&.&.&.&.&.&.&.&.&.&.&.&.&.#.1     n &.&.&.&.&.&.&.&.&.&.&.&.&.&.&.&.&.&.&.&.*.b. X X X X X X X(.",
"(. X X X X X X X X X X X X X X X X X X X X X X X X X X X X_.j     |  X X X X X X X X X X X X X X X X X X X X X X X X X X X X X(.",
"(. X X X X X X X X X X X X X X X X X X X X X X X X X X X X_.g     |  X X X X X X X X X X X X X X X X X X X X X X X X X X X X X(.",
"(. X X X X X X X X X X X X X X X X X X X X X X X X X X X X_.g     |  X X X X X X X X X X X X XE.!. X X X X X X X X X X X X X X(.",
"(. X X X X X X X X X X X X Xm.c.'. X X X X X X X X X X X X_.g     |  X X X X X X X X X X X XW.J c v. X X X X X X X X X X X X X(.",
"(. X X X X X X X X X X X X X;.- B 7.P.(.(.(.(.(.(.(.(.(.(.U.g     } (.(.(.(.(.(.(.(.(.(.(.Y.Q     q a. X X X X X X X X X X X X(.",
"(. X X X X X X X X X X X X X;.    o 7 t t t t t t t t t t t &     ; t t t t t t t t t t t 7 .       5 S. X X X X X X X X X X X(.",
"(. X X X X X X X X X X X X X;.    e @.+.+.+.+.+.+.+.+.+.+.@.<     n +.+.+.+.+.+.+.+.+.+.+.@.u       c G. X X X X X X X X X X X(.",
"(. X X X X X X X X X X X X X;.    K  X X X X X X X X X X X_.j     |  X X X X X X X X X X X XJ     K F. X X X X X X X X X X X X(.",
"(. X X X X X X X X X X X X X;.    K '. X X X X X X X X X X_.g     |  X X X X X X X X X X X XD     o. X X X X X X X X X X X X X(.",
"(. X X X X X X X X X X X X X;.    K '. X X X X X X X X X X_.g     |  X X X X X X X X X X X XD     X. X X X X X X X X X X X X X(.",
"(. X X X X X X X X X X X X X;.    K '. X X X X X X X X X X_.g     |  X X X X X X X X X X X_.D     X. X X X X X X X X X X X X X(.",
"(. X X X X X X X X X X X X X;.    K '. X X X X X X X X X X_.j     |  X X X X X X X X X X X XG     X. X X X X X X X X X X X X X(.",
"(. X X X X X X X X X X X X X;.    b p.f.f.f.f.f.f.f.f.f.f.t.i     Y j.f.f.f.f.f.f.f.f.f.f.f.h     X. X X X X X X X X X X X X X(.",
"(. X X X X X X X X X X X X X;.    + : : : : : : : : : : : : X     * : : : : : : : : : : : : O     X. X X X X X X X X X X X X X(.",
"(. X X X X X X X X X X X X X;.    b c.j.j.j.j.j.j.j.j.j.j.k.d     R N.j.j.j.j.j.j.j.j.j.j.z.Z     X. X X X X X X X X X X X X X(.",
"(. X X X X X X X X X X X X X;.    K '. X X X X X X X X X X_.j     |  X X X X X X X X X X X XG     X. X X X X X X X X X X X X X(.",
"(. X X X X X X X X X X X X X;.    K '. X X X X X X X X X X_.g     |  X X X X X X X X X X X XD     X. X X X X X X X X X X X X X(.",
"(. X X X X X X X X X X X X X;.    K '. X X X X X X X X X X_.g     |  X X X X X X X X X X X XD     X. X X X X X X X X X X X X X(.",
"(. X X X X X X X X X X X X X;.    K '. X X X X X X X X X X_.g     |  X X X X X X X X X X X XD     X. X X X X X X X X X X X X X(.",
"(. X X X X X X X X X X X X X;.    K  X X X X X X X X X X X_.j     |  X X X X X X X X X X X XJ     X. X X X X X X X X X X X X X(.",
"(. X X X X X X X X X X X X X;.    w { O.O.O.O.O.O.O.O.O.O./ <     v O.O.O.O.O.O.O.O.O.O.O.^ 9     X. X X X X X X X X X X X X X(.",
"(. X X X X X X X X X X X X X;.    - y y y y y y y y y y 8           3 y y y y y y y y y y y >     X. X X X X X X X X X X X X X(.",
"(. X X X X X X X X X X X X X;.    K ^.).(.(.(.(.(.(. XU.S           x s. X).(.(.(.(.(.(.(.).D     X. X X X X X X X X X X X X X(.",
"(. X X X X X X X X X X X X X;.    K '. X X X X X X X_.~           6 . 4 u. X X X X X X X X XH     X. X X X X X X X X X X X X X(.",
"(. X X X X X X X X X X X X X>., : T '. X X X X X X X` @           } ) . = $.^. X X X X X X XQ : : ,. X X X X X X X X X X X X X(.",
"(. X X X X X X X X X X X X X(.H.H.P. X X X X X X X-.#     r 0     | _.^ . o L Z. X X X X X XP.H.H./. X X X X X X X X X X X X X(.",
"(. X X X X X X X X X X X X X X X X X X X X X X X-.#     v n.l     |  X_._ @   q 1.`. X X X X X X X X X X X X X X X X X X X X X(.",
"(. X X X X X X X X X X X X X X X X X X X X X_._ #     N S._.g     |  X X X=.%   o L c. X X X X X X X X X X X X X X X X X X X X(.",
"(. X X X X X X X X X X X X X X X X X X X XY.! .   o T ~. X_.g     |  X X X Xw.1     2 ] D. X X X X X X X X X X X X X X X X X X(.",
"(. X X X X X X X X X X X X X X X X X X XV.S     = $.`. X X_.g     |  X X X X XB.M       w ..F. X X X X X X X X X X X X X X X X(.",
"(. X X X X X X X X X X X X X X X X X Xw.u     z i. X X X X_.g     |  X X X X X XU.) %       w %.A. X X X X X X X X X X X X X X(.",
"(. X X X X X X X X X X X X X X X XU.) %   * E F. X X X X X_.g     |  X X X X X X X Xw.s         6 W c.'. X X X X X X X X X X X(.",
"(. X X X X X X X X X X X X X X Xr.h     z 0. X X X X X X X_.g     |  X X X X X X X X XJ.( ,         - B 3.K. X X X X X X X X X(.",
"(. X X X X X X X X X X X X XC.! %   2 ..K. X X X X X X X X).g     |  X X X X X X X X X X Xl.F $           w E q.L. X X X X X X(.",
"(. X X X X X X X X X X XY.:.0   = U n. X X X X X X X X X X_.g     |  X X X X X X X X X X X X_.w.m X           o L ~. X X X X X(.",
"(. X X X X X X X X XE.4.a   * I p. X X X X X X X X X X X X_.g     |  X X X X X X X X X X X X X X(.5.m O       4 s. X X X X X X(.",
"(. X X X X X X XY.4.f . ; U p. X X X X X X X X X X X X X X_.g     |  X X X X X X X X X X X X X X X X).e.F % = u. X X X X X X X(.",
"(. X X X X X X>.p O w [ b. X X X X X X X X X X X X X X X X).g     |  X X X X X X X X X X X X X X X X X X Xl.7.'. X X X X X X X(.",
"(. X X X X X X=.C 6.L. X X X X X X X X X X X X X X X X X X_.g     |  X X X X X X X X X X X X X X X X X X X X X X X X X X X X X(.",
"(. X X X X X X X X X X X X X X X X X X X X X X X X X X X XW.g      . X X X X X X X X X X X X X X X X X X X X X X X X X X X X X(.",
"(. X X X X X X X X X X X X X X X X X X X X X X X X X X X X_._ V V 2. X X X X X X X X X X X X X X X X X X X X X X X X X X X X X(.",
"(. X X X X X X X X X X X X X X X X X X X X X X X X X X X X X X X X X X X X X X X X X X X X X X X X X X X X X X X X X X X X X X(.",
"(. X X X X X X X X X X X X X X X X X X X X X X X X X X X X X X X X X X X X X X X X X X X X X X X X X X X X X X X X X X X X X X(.",
"(. X X X X X X X X X X X X X X X X X X X X X X X X X X X X X X X X X X X X X X X X X X X X X X X X X X X X X X X X X X X X X X(.",
"(. X X X X X X X X X X X X X X X X X X X X X X X X X X X X X X X X X X X X X X X X X X X X X X X X X X X X X X X X X X X X X X(.",
"(. X X X X X X X X X X X X X X X X X X X X X X X X X X X X X X X X X X X X X X X X X X X X X X X X X X X X X X X X X X X X X X(.",
"(. X X X X X X X X X X X X X X X X X X X X X X X X X X X X X X X X X X X X X X X X X X X X X X X X X X X X X X X X X X X X X X(.",
"(. X X X X X X X X X X X X X X X X X X X X X X X X X X X X X X X X X X X X X X X X X X X X X X X X X X X X X X X X X X X X X X(.",
"R.(.(.(.(.(.(.(.(.(.(.(.(.(.(.(.(.(.(.(.(.(.(.(.(.(.(.(.(.(.(.(.(.(.(.(.(.(.(.(.(.(.(.(.(.(.(.(.(.(.(.(.(.(.(.(.(.(.(.(.(.(.(.P."
};
