/* XPM */
static char *south[] = {
/* columns rows colors chars-per-pixel */
"64 64 186 2 ",
"   c #000000",
".  c #0B0401",
"X  c #090807",
"o  c #000009",
"O  c #0A0A0B",
"+  c #05090B",
"@  c #140D06",
"#  c #110E0C",
"$  c #1D120A",
"%  c #050914",
"&  c #080E14",
"*  c #120F10",
"=  c #0F1113",
"-  c #181716",
";  c #151618",
":  c #1C1C1C",
">  c #141414",
",  c #22140C",
"<  c #201B13",
"1  c #372415",
"2  c #382415",
"3  c #34261D",
"4  c #382A1F",
"5  c #0C1623",
"6  c #141C28",
"7  c #18242F",
"8  c #142231",
"9  c #1C2633",
"0  c #202021",
"q  c #2D2827",
"w  c #3E2F28",
"e  c #3B3029",
"r  c #2D333B",
"t  c #3F3E3F",
"y  c #32363C",
"u  c #433124",
"i  c #4F3326",
"p  c #52372A",
"a  c #533F2E",
"s  c #463B30",
"d  c #553B33",
"f  c #4E463D",
"g  c #524434",
"h  c #604D3E",
"j  c #1E2F41",
"k  c #262F42",
"l  c #2D3A4B",
"z  c #2B3648",
"x  c #383B40",
"c  c #313A48",
"v  c #3B4248",
"b  c #334152",
"n  c #3A495F",
"m  c #35495D",
"M  c #3D4B60",
"N  c #484643",
"B  c #514845",
"V  c #404856",
"C  c #414E5C",
"Z  c #535353",
"A  c #54585D",
"S  c #644E41",
"D  c #6B5641",
"F  c #6F5748",
"G  c #675344",
"H  c #735A4B",
"J  c #6B6259",
"K  c #7F6754",
"L  c #7E6A5A",
"P  c #47596F",
"I  c #4A5B6F",
"U  c #4A566B",
"Y  c #525B69",
"T  c #4A5A73",
"R  c #4E6378",
"E  c #5B6877",
"W  c #536373",
"Q  c #646464",
"!  c #696D77",
"~  c #866956",
"^  c #886A57",
"/  c #876A58",
"(  c #8B7562",
")  c #877368",
"_  c #947964",
"`  c #8D7B72",
"'  c #937D72",
"]  c #99846B",
"[  c #88837F",
"{  c #9F8A78",
"}  c #9B8876",
"|  c #A18D79",
" . c #566986",
".. c #576A88",
"X. c #5E6D82",
"o. c #5F7793",
"O. c #5F7892",
"+. c #63788D",
"@. c #607996",
"#. c #6A8199",
"$. c #758799",
"%. c #8C8C8D",
"&. c #868F9F",
"*. c #A39384",
"=. c #B19B88",
"-. c #A49F99",
";. c #B8A18D",
":. c #AFA99F",
">. c #B7A696",
",. c #8799A7",
"<. c #879EB6",
"1. c #8C9FB7",
"2. c #8A9FB8",
"3. c #94A3AE",
"4. c #8BA1B4",
"5. c #98A6B1",
"6. c #92A1B5",
"7. c #AFAEAE",
"8. c #B3ACA6",
"9. c #B7B7B7",
"0. c #BFBFBF",
"q. c #B6B9B7",
"w. c #C3B4A0",
"e. c #C0BFBE",
"r. c #C6BBB2",
"t. c #D3C0AF",
"y. c #C1C0BE",
"u. c #D7C6B4",
"i. c #D4CABA",
"p. c #9DAEC3",
"a. c #AEBFCF",
"s. c #ADB7C2",
"d. c #B4BBC3",
"f. c #BBBEC2",
"g. c #ABBDD1",
"h. c #C4BEC1",
"j. c #BFC0C1",
"k. c #B3C0C5",
"l. c #AEC0D3",
"z. c #B4C3D3",
"x. c #C0C1C1",
"c. c #CFCBC9",
"v. c #DAD1CA",
"b. c #C6CFD8",
"n. c #C6D0D7",
"m. c #CCD1D6",
"M. c #C6D1DF",
"N. c #D5D5D5",
"B. c #D9D6D4",
"V. c #DED9D6",
"C. c #D4D7D8",
"Z. c #DCDCDC",
"A. c #E6DDD3",
"S. c #E4D6C9",
"D. c #EEE3D3",
"F. c #EAE3DD",
"G. c #F1E6DA",
"H. c #F0E4D4",
"J. c #C4D4E2",
"K. c #CDD9E5",
"L. c #CFDEEA",
"P. c #D2DAE5",
"I. c #D5DDE6",
"U. c #D5E0EC",
"Y. c #DDE0E7",
"T. c #DDE9F1",
"R. c #E4E4E3",
"E. c #EEEEED",
"W. c #E8E8E8",
"Q. c #F4EDE6",
"!. c #F9EFE7",
"~. c #F2EDE8",
"^. c #EDF0EC",
"/. c #FAF3E6",
"(. c #F7F2EF",
"). c #FAF4EB",
"_. c #E4EBF1",
"`. c #EDEFF0",
"'. c #EFF1F4",
"]. c #EAF3FA",
"[. c #F3F5F5",
"{. c #FDFAF4",
"}. c #F3F6FB",
"|. c #F3F9FE",
" X c #FFFFFF",
".X c #FDF7F2",
/* pixels */
"E.[.[.[.[.[.[.[.[.[.[.[.[.[.[.[.[.[.[.[.[.[.[.[.[.[.[.[.[.[.[.[.[.[.[.[.[.[.[.[.[.[.[.[.[.[.[.[.[.[.[.[.[.[.[.[.[.[.[.[.[.[.[.`.",
"[. X X X X X X X X X X X X X X X X X X X X X X X X X X X X X X X X X X X X X X X X X X X X X X X X X X X X X X X X X X X X X X[.",
"[. X X X X X X X X X X X X X X X X X X X X X X X X X X X X X X X X X X X X X X X X X X X X X X X X X X X X X X X X X X X X X X[.",
"[. X X X X X X X X X X X X X X X X X X X X X X X X X X X X X X X X X X X X X X X X X X X X X X X X X X X X X X X X X X X X X X[.",
"[. X X X X X X X X X X X X X X X X X X X X X X X X X X X X X X X X X X X X X X X X X X X X X X X X X X X X X X X X X X X X X X[.",
"[. X X X X X X X X X X X X X X X X X X X X X X X X X X X X X X X X X X X X X X X X X X X X X X X X X X X X X X X X X X X X X X[.",
"[. X X X X X X X X X X X X X X X X X X X X X X X X X X X X Xv.7.f.R.'. X X X X X X X X X X X X X X X X X X X X X X X X X X X X[.",
"[. X X X X X X X X X X X X X X X X X X X X X X X X X X X X X^   O 0 y &.|. X X X X X X X X X X X X X X X X X X X X X X X X X X[.",
"[. X X X X X X X X X X X X X X X X X X X X X X X X X X X X X^       X X.[. X X X X X X X X X X X X X X X X X X X X X X X X X X[.",
"[. X X X X X X X X X X X X X X X X X X X X X X X X X X X X X^     z k.[. X X X X X X X X X X X X X X X X X X X X X X X X X X X[.",
"[. X X X X X X X X X X X X X X X X X X X X X X X X X X X X X^      . X X X X X X X X X X X X X X X X X).) ,. X X X X X X X X X[.",
"[. X X X X X X X X X X X X X X X X X X X X X X X X X X X X X^      . X X X X X X X X X X X X X X X X X{ . % ,. X X X X X X X X[.",
"[. X X X X X X X X X X X X X X X X X X X X X X X X X X X X X^     .. X X X X X X X X X X X X X X X Xw.$     & ,. X X X X X X X[.",
"[. X X X X X X~.9.9.9.9.9.9.9.9.9.9.9.9.9.9.9.9.9.9.q.9.9.q.g     M q.9.9.9.9.9.9.9.9.9.9.9.9.9.9.:.4         % 6. X X X X X X[.",
"[. X X X X X XA.s : : : : : : : : : : : : : : : : : : : : : O     & : : : : : : : : : : : : : : : : - : : : : ; $. X X X X X X[.",
"[. X X X X X X XR.Z.Z.Z.Z.Z.Z.Z.Z.Z.Z.Z.Z.Z.Z.Z.Z.Z.Z.Z.Z.Z.H     T Z.Z.Z.Z.Z.Z.Z.Z.Z.Z.Z.Z.Z.Z.Z.Z.Z.Z.Z.Z.Z.Z.[. X X X X X X[.",
"[. X X X X X X X X X X X X X X X X X X X X X X X X X X X X X^      . X X X X X X X X X X X X X X X X X X X X X X X X X X X X X[.",
"[. X X X X X X X X X X X X X X X X X X X X X X X X X X X X X^      . X X X X X X X X X X X X X X X X X X X X X X X X X X X X X[.",
"[. X X X X X X X X X X X X X X X X X X X X X X X X X X X X X^      . X X X X X X X X X X X X X X X X X X X X X X X X X X X X X[.",
"[. X X X X X X X X X X X X X X X X X X X X X X X X X X X X X^      . X X X X X X X X X X X X X X X XB._. X X X X X X X X X X X[.",
"[. X X X X X X X X X X{.h._. X X X X X X X X X X X X X X X X^      . X X X X X X X X X X X X X X XS.w C P. X X X X X X X X X X[.",
"[. X X X X X X X X X X/.d z 5.'. X X X X X X X X X X X X X X^      . X X X X X X X X X X X X X XQ.h     l J. X X X X X X X X X[.",
"[. X X X X X X X X X X/.p   o v Q Q Q Q Q Q Q Q Q Q Q Q Q Q 3     9 Q Q Q Q Q Q Q Q Q Q Q Q Q Q f         b _. X X X X X X X X[.",
"[. X X X X X X X X X X/.p     r Z Z Z Z Z Z Z Z Z Z Z Z Z Z Z Z Z Z Z Z Z Z Z Z Z Z Z Z Z Z Z Z B @       k K. X X X X X X X X[.",
"[. X X X X X X X X X X/.p   o 1. X X X X X X[.[. X X X X X X X X X X X X(.Z. X X X X X X X X X XD.2     W P. X X X X X X X X X[.",
"[. X X X X X X X X X X/.p   o 2. X X X X X{.) V s. X X X X X X X X X X Xt.q Y f.[. X X X X X X XD.2   % l. X X X X X X X X X X[.",
"[. X X X X X X X X X X/.p   o 2. X X X X X X;.@ & E U. X X X X X X X X X]     O Y U. X X X X X XD.2   % g. X X X X X X X X X X[.",
"[. X X X X X X X X X X/.p   o 2. X X X X X X X| .   l b. X X X X X X X/.a       6 p. X X X X X XD.1   % g. X X X X X X X X X X[.",
"[. X X X X X X X X X X/.p   o 2. X X X X X X X).D     z L. X X X X X Xu.$   5 3.I. X X X X X X XD.1   % g. X X X X X X X X X X[.",
"[. X X X X X X X X X X/.p   o 2. X X X X X X X Xu.,     +. X X X X X X_     +. X X X X X X X X XD.2   % g. X X X X X X X X X X[.",
"[. X X X X X X X X X X/.p   o 2. X X X X X X X X{.D     j T. X X X XG.u   b T. X XQ.Y. X X X X XD.1   % g. X X X X X X X X X X[.",
"[. X X X X X X X X X X/.p   o 2. X X X X X X X X X=.    8 U. X X X X;.. 6 z. X X{.( c J. X X X XD.2   % g. X X X X X X X X X X[.",
"[. X X X X X X X X X X/.p   o 2. X X X X X X X X XD.u   I |. X X X/.a % 4. X X X>.@   l K. X X XD.1   % g. X X X X X X X X X X[.",
"[. X X X X X X X X X X/.p   o 2. X X{.V.N.N.N.N.N.N.8.%.f.N.N.N.Z.*.. U m.N.C.r.4       n T. X XD.2   % g. X X X X X X X X X X[.",
"[. X X X X X X X X X X/.p   o 2. X X).G : : : : : : : 0 : : - > > O X ; : : : - O O O   9 K. X XD.1   % g. X X X X X X X X X X[.",
"[. X X X X X X X X X X/.p   o 2. X X XV.9.9.9.9.f.9.9.x.9.y.S     I x.x.9.9.9.j.x.x.x.e.m. X X XD.2   % g. X X X X X X X X X X[.",
"[. X X X X X X X X X X/.p   o 2. X X X X X X X X X X X X X X^     @. X X X X X X X X X X X X X XD.1   % g. X X X X X X X X X X[.",
"[. X X X X X X X X X X/.p   o 2. X X X X X X X X X X X X X X^     o. X X X X X X X X X X X X X XD.2   % g. X X X X X X X X X X[.",
"[. X X X X X X X X X X/.p   o 2. X X X X X X X X X X X X X X^     O. X X X X X X X XA.Y. X X X XD.1   % g. X X X X X X X X X X[.",
"[. X X X X X X X X X X/.p   o 2. X X X X X X X X X X X X X X^     O. X X X X X X XG.g b K. X X XD.2   % g. X X X X X X X X X X[.",
"[. X X X X X X X X X X/.p   o 2. X X X X X X X X X X X X X X^     @. X X X X X X.XK     l K. X XD.1   % g. X X X X X X X X X X[.",
"[. X X X X X X X X X X/.p   o 2. X XZ.N.N.N.N.N.N.N.N.N.N.B.F     R C.N.N.N.N.N.} .       n T. XD.1   % g. X X X X X X X X X X[.",
"[. X X X X X X X X X X/.p   o 2. X{.L : : : : : : : : : : : O     O : : : : : : #   O O   8 J. XD.1   % g. X X X X X X X X X X[.",
"[. X X X X X X X X X X/.p   o 2. X XF.e.9.9.9.9.x.x.9.9.9.y.S     P j.x.x.x.9.9.x.x.x.x.x.m. X XD.1   % g. X X X X X X X X X X[.",
"[. X X X X X X X X X X/.p   o 2. X X X X X X X X X X X X X X/     @. X X X X X X X X X X X X X XD.1   % g. X X X X X X X X X X[.",
"[. X X X X X X X X X X/.p   o 2. X X X X X X X X X X X X X X^     O. X X X X X X X X X X X X X XD.1   % g. X X X X X X X X X X[.",
"[. X X X X X X X X X X/.p   o 2. X X X X X X X X X X X X X X^     O. X X X X X X X X X X X X X XD.1   % g. X X X X X X X X X X[.",
"[. X X X X X X X X X X/.p   o 2. X X X X X X X X X X X X X X^     O. X X X X X X X X X X X X X XD.1   % g. X X X X X X X X X X[.",
"[. X X X X X X X X X X/.p   o 2. X X X X X X X X X X X X X X^     o. X X X X X X X X X X X X X XH.2   % g. X X X X X X X X X X[.",
"[. X X X X X X X X X X/.p   o 2. X X X X X X X X X X X X X X^     O. X X X X X[. X X X X X X X Xu.,   % g. X X X X X X X X X X[.",
"[. X X X X X X X X X X/.p   o 2. X X X X X X X X X X X X X X^     O. X X X X X' t N A %.%.%.%.[ e     % g. X X X X X X X X X X[.",
"[. X X X X X X X X X X/.p   o 2. X X X X X X X X X X X X X X^     O. X X X X X>.B q O                 5 J. X X X X X X X X X X[.",
"[. X X X X X X X X X X/.p   o 1. X X X X X X X X X X X X X X^     o. X X X X X X XE.c.-.J <           m ]. X X X X X X X X X X[.",
"[. X X X X X X X X X X/.p   o 1. X X X X X X X X X X X X X X( * = #. X X X X X X X X X X Xi.u       7 a. X X X X X X X X X X X[.",
"[. X X X X X X X X X X/.i     <. X X X X X X X X X X X X X XW.N.N.W. X X X X X X X X X X X X=.: x ! n. X X X X X X X X X X X X[.",
"[. X X X X X X X X X X).` Z A z. X X X X X X X X X X X X X X X X X X X X X X X X X X X X X X[.Z.'. X X X X X X X X X X X X X X[.",
"[. X X X X X X X X X X X X X X X X X X X X X X X X X X X X X X X X X X X X X X X X X X X X X X X X X X X X X X X X X X X X X X[.",
"[. X X X X X X X X X X X X X X X X X X X X X X X X X X X X X X X X X X X X X X X X X X X X X X X X X X X X X X X X X X X X X X[.",
"[. X X X X X X X X X X X X X X X X X X X X X X X X X X X X X X X X X X X X X X X X X X X X X X X X X X X X X X X X X X X X X X[.",
"[. X X X X X X X X X X X X X X X X X X X X X X X X X X X X X X X X X X X X X X X X X X X X X X X X X X X X X X X X X X X X X X[.",
"[. X X X X X X X X X X X X X X X X X X X X X X X X X X X X X X X X X X X X X X X X X X X X X X X X X X X X X X X X X X X X X X[.",
"[. X X X X X X X X X X X X X X X X X X X X X X X X X X X X X X X X X X X X X X X X X X X X X X X X X X X X X X X X X X X X X X[.",
"[. X X X X X X X X X X X X X X X X X X X X X X X X X X X X X X X X X X X X X X X X X X X X X X X X X X X X X X X X X X X X X X[.",
"^.[.[.[.[.[.[.[.[.[.[.[.[.[.[.[.[.[.[.[.[.[.[.[.[.[.[.[.[.[.[.[.[.[.[.[.[.[.[.[.[.[.[.[.[.[.[.[.[.[.[.[.[.[.[.[.[.[.[.[.[.[.[.E."
};
